<svg height="512" viewBox="0 0 152 152" width="512" xmlns="http://www.w3.org/2000/svg"><g id="Layer_2" data-name="Layer 2"><g id="_10.linkedin" data-name="10.linkedin"><circle id="background" cx="76" cy="76" fill="#0b69c7" r="76"/><g id="icon" fill="#fff"><path d="m59 48.37a10.38 10.38 0 1 1 -10.37-10.37 10.38 10.38 0 0 1 10.37 10.37z"/><rect height="50.93" rx="2.57" width="16.06" x="40.6" y="63.07"/><path d="m113.75 89.47v22.17a2.36 2.36 0 0 1 -2.36 2.36h-11.72a2.36 2.36 0 0 1 -2.36-2.36v-21.48c0-3.21.93-14-8.38-14-7.22 0-8.69 7.42-9 10.75v24.78a2.36 2.36 0 0 1 -2.34 2.31h-11.34a2.35 2.35 0 0 1 -2.36-2.36v-46.2a2.36 2.36 0 0 1 2.36-2.37h11.34a2.37 2.37 0 0 1 2.41 2.37v4c2.68-4 6.66-7.12 15.13-7.12 18.73-.01 18.62 17.52 18.62 27.15z"/></g></g></g></svg>