<svg width="39" height="35" viewBox="0 0 39 35" fill="none" xmlns="http://www.w3.org/2000/svg">
<path fill-rule="evenodd" clip-rule="evenodd" d="M7.96175 15.75H11.7565C11.93 13.0445 12.5033 10.5525 13.3886 8.5435C11.9632 9.32736 10.7413 10.3761 9.80524 11.6191C8.86916 12.8622 8.24057 14.2707 7.96175 15.75ZM19.4999 3.5C15.3625 3.5 11.3946 4.975 8.46904 7.60051C5.54347 10.226 3.8999 13.787 3.8999 17.5C3.8999 21.213 5.54347 24.774 8.46904 27.3995C11.3946 30.025 15.3625 31.5 19.4999 31.5C23.6373 31.5 27.6052 30.025 30.5308 27.3995C33.4563 24.774 35.0999 21.213 35.0999 17.5C35.0999 13.787 33.4563 10.226 30.5308 7.60051C27.6052 4.975 23.6373 3.5 19.4999 3.5ZM19.4999 7C19.3517 7 19.0475 7.056 18.5932 7.4585C18.1291 7.868 17.624 8.54875 17.156 9.527C16.3975 11.1142 15.8437 13.2755 15.6623 15.75H23.3375C23.1562 13.2755 22.6024 11.1142 21.8438 9.527C21.3758 8.547 20.8688 7.868 20.4067 7.4585C19.9523 7.056 19.6481 7 19.4999 7ZM27.2434 15.75C27.0698 13.0445 26.4965 10.5525 25.6112 8.5435C27.0366 9.32736 28.2585 10.3761 29.1946 11.6191C30.1306 12.8622 30.7592 14.2707 31.0381 15.75H27.2434ZM23.3375 19.25H15.6623C15.8437 21.7245 16.3975 23.8857 17.156 25.473C17.624 26.453 18.131 27.132 18.5932 27.5415C19.0475 27.944 19.3517 28 19.4999 28C19.6481 28 19.9523 27.944 20.4067 27.5415C20.8708 27.132 21.3778 26.4513 21.8438 25.473C22.6024 23.8857 23.1562 21.7245 23.3375 19.25ZM25.6112 26.4565C26.4965 24.4492 27.0698 21.9555 27.2434 19.25H31.0381C30.7592 20.7293 30.1306 22.1378 29.1946 23.3809C28.2585 24.6239 27.0366 25.6726 25.6112 26.4565ZM13.3886 26.4565C12.5033 24.4475 11.93 21.9555 11.7584 19.25H7.96175C8.24057 20.7293 8.86916 22.1378 9.80524 23.3809C10.7413 24.6239 11.9632 25.6726 13.3886 26.4565Z" fill="#0078E8"/>
</svg>