<svg width="39" height="35" viewBox="0 0 39 35" fill="none" xmlns="http://www.w3.org/2000/svg">
<path d="M21.4499 5.25C21.4499 4.78587 21.2445 4.34075 20.8788 4.01256C20.5131 3.68437 20.0171 3.5 19.4999 3.5C18.9827 3.5 18.4867 3.68437 18.121 4.01256C17.7554 4.34075 17.5499 4.78587 17.5499 5.25V7C17.5499 7.46413 17.7554 7.90925 18.121 8.23744C18.4867 8.56563 18.9827 8.75 19.4999 8.75C20.0171 8.75 20.5131 8.56563 20.8788 8.23744C21.2445 7.90925 21.4499 7.46413 21.4499 7V5.25ZM30.5311 10.0747C30.8863 9.7447 31.0828 9.30264 31.0784 8.8438C31.0739 8.38495 30.8688 7.94603 30.5073 7.62157C30.1458 7.2971 29.6567 7.11306 29.1454 7.10907C28.6341 7.10508 28.1415 7.28147 27.7738 7.60025L26.3951 8.8375C26.0399 9.16755 25.8433 9.60961 25.8478 10.0685C25.8522 10.5273 26.0573 10.9662 26.4189 11.2907C26.7804 11.6151 27.2695 11.7992 27.7808 11.8032C28.2921 11.8072 28.7846 11.6308 29.1524 11.312L30.5311 10.0747ZM35.0999 17.5C35.0999 17.9641 34.8945 18.4092 34.5288 18.7374C34.1631 19.0656 33.6671 19.25 33.1499 19.25H31.1999C30.6827 19.25 30.1867 19.0656 29.821 18.7374C29.4554 18.4092 29.2499 17.9641 29.2499 17.5C29.2499 17.0359 29.4554 16.5908 29.821 16.2626C30.1867 15.9344 30.6827 15.75 31.1999 15.75H33.1499C33.6671 15.75 34.1631 15.9344 34.5288 16.2626C34.8945 16.5908 35.0999 17.0359 35.0999 17.5ZM9.8474 11.312C10.0273 11.4791 10.2425 11.6125 10.4804 11.7042C10.7183 11.7959 10.9742 11.8442 11.2331 11.8462C11.492 11.8482 11.7488 11.8039 11.9884 11.7159C12.2281 11.6279 12.4458 11.498 12.6289 11.3337C12.812 11.1694 12.9568 10.974 13.0548 10.7589C13.1529 10.5439 13.2022 10.3134 13.1999 10.081C13.1977 9.84868 13.1439 9.61905 13.0417 9.40554C12.9395 9.19204 12.7909 8.99893 12.6047 8.8375L11.2261 7.60025C10.8583 7.28147 10.3657 7.10508 9.85442 7.10907C9.34314 7.11306 8.85405 7.2971 8.49251 7.62157C8.13096 7.94603 7.92588 8.38495 7.92144 8.8438C7.917 9.30264 8.11354 9.7447 8.46875 10.0747L9.8474 11.312ZM9.7499 17.5C9.7499 17.9641 9.54446 18.4092 9.17876 18.7374C8.81306 19.0656 8.31707 19.25 7.7999 19.25H5.8499C5.33273 19.25 4.83674 19.0656 4.47104 18.7374C4.10535 18.4092 3.8999 17.9641 3.8999 17.5C3.8999 17.0359 4.10535 16.5908 4.47104 16.2626C4.83674 15.9344 5.33273 15.75 5.8499 15.75H7.7999C8.31707 15.75 8.81306 15.9344 9.17876 16.2626C9.54446 16.5908 9.7499 17.0359 9.7499 17.5ZM15.5999 28V26.25H23.3999V28C23.3999 28.9283 22.989 29.8185 22.2576 30.4749C21.5262 31.1313 20.5342 31.5 19.4999 31.5C18.4656 31.5 17.4736 31.1313 16.7422 30.4749C16.0108 29.8185 15.5999 28.9283 15.5999 28ZM23.3999 24.5C23.4292 23.905 23.8055 23.3695 24.3301 22.9967C25.6028 22.0959 26.5312 20.8617 26.9862 19.4655C27.4413 18.0694 27.4003 16.5807 26.8691 15.2063C26.3379 13.832 25.3428 12.6403 24.0221 11.797C22.7015 10.9536 21.1208 10.5004 19.4999 10.5004C17.879 10.5004 16.2983 10.9536 14.9777 11.797C13.657 12.6403 12.6619 13.832 12.1307 15.2063C11.5995 16.5807 11.5585 18.0694 12.0136 19.4655C12.4686 20.8617 13.397 22.0959 14.6698 22.9967C15.1963 23.3695 15.5707 23.905 15.598 24.5H23.4019H23.3999Z" fill="#0078E8"/>
</svg>
