<svg width="882" height="564" viewBox="0 0 882 564" fill="none" xmlns="http://www.w3.org/2000/svg">
<path d="M788.737 176.991C780.311 176.991 773.481 170.161 773.481 161.736C773.481 153.311 780.311 146.481 788.737 146.481C797.162 146.481 803.992 153.311 803.992 161.736C803.992 170.161 797.162 176.991 788.737 176.991Z" fill="#93C9FE"/>
<path d="M821.869 196.775C828.304 196.775 833.548 191.531 833.548 185.095C833.548 178.659 828.304 173.415 821.869 173.415C815.433 173.415 810.189 178.659 810.189 185.095C809.951 191.531 815.433 196.775 821.869 196.775ZM821.869 175.084C827.351 175.084 831.88 179.613 831.88 185.095C831.88 190.577 827.351 195.106 821.869 195.106C816.386 195.106 811.857 190.577 811.857 185.095C811.857 179.613 816.148 175.084 821.869 175.084Z" fill="#333333"/>
<path d="M376.372 72.827C382.808 72.827 388.052 67.583 388.052 61.1473C388.052 54.7115 382.808 49.4676 376.372 49.4676C369.936 49.4676 364.692 54.7115 364.692 61.1473C364.692 67.583 369.936 72.827 376.372 72.827ZM376.372 51.1361C381.854 51.1361 386.383 55.665 386.383 61.1473C386.383 66.6296 381.854 71.1585 376.372 71.1585C370.89 71.1585 366.361 66.6296 366.361 61.1473C366.361 55.4266 370.89 51.1361 376.372 51.1361Z" fill="#333333"/>
<path d="M791.358 167.218L812.096 146.481L791.358 125.743L770.621 146.481L791.358 167.218ZM809.712 146.481L791.358 164.834L773.005 146.481L791.358 128.127L809.712 146.481Z" fill="#333333"/>
<path d="M794.696 207.501C794.696 210.838 797.318 213.46 800.655 213.46C803.992 213.46 806.614 210.838 806.614 207.501C806.614 204.164 803.992 201.542 800.655 201.542C797.318 201.542 794.696 204.164 794.696 207.501Z" fill="#1B2844"/>
<path d="M60.7823 332.641C76.9908 332.641 90.1006 319.531 90.1006 303.322C90.1006 286.875 75.0839 271.382 59.1137 271.382C43.1435 271.382 28.1268 287.114 28.1268 303.561C27.8884 320.246 45.2888 332.641 60.7823 332.641ZM58.8754 273.289C73.8921 273.289 87.9554 287.829 87.9554 303.322C87.9554 318.339 75.5606 330.734 60.5439 330.734C46.0038 330.734 29.7953 319.054 29.7953 303.561C30.0337 288.067 44.097 273.289 58.8754 273.289Z" fill="#333333"/>
<path d="M53.3928 360.767H64.5958C66.5027 360.767 68.1713 359.337 68.4096 357.43L69.1247 350.994C69.1247 350.279 69.8398 349.564 70.5549 349.564C71.2699 349.326 71.985 349.088 72.7001 349.088C73.4152 348.849 74.1302 349.088 74.607 349.803L78.6591 355.047C79.8509 356.477 81.9962 356.953 83.4263 356L92.9608 350.518C94.6293 349.564 95.3444 347.657 94.6294 345.75L92.0074 339.553C91.769 338.838 92.0073 338.123 92.484 337.408C92.9608 336.931 93.4375 336.454 93.9142 335.978C94.3909 335.501 95.3444 335.263 96.0595 335.501L102.257 338.123C103.925 338.838 106.071 338.123 107.024 336.454L112.506 326.92C113.46 325.251 112.983 323.106 111.553 322.153L106.309 318.101C105.594 317.624 105.356 316.909 105.594 316.194C105.832 315.479 106.071 314.764 106.071 314.048C106.309 313.333 106.786 312.618 107.501 312.618L114.175 311.665C116.082 311.426 117.512 309.758 117.512 307.851V296.648C117.512 294.741 116.082 293.073 114.175 292.834L107.501 291.881C106.786 291.881 106.071 291.166 106.071 290.451C105.832 289.736 105.594 289.021 105.594 288.305C105.356 287.59 105.594 286.875 106.309 286.399L111.553 282.346C112.983 281.155 113.46 279.009 112.506 277.579L107.024 268.045C106.071 266.376 104.164 265.661 102.257 266.376L96.0595 268.998C95.3444 269.237 94.6293 268.998 93.9142 268.521C93.4375 268.045 92.9608 267.568 92.484 267.091C92.0073 266.615 91.769 265.661 92.0074 264.946L94.6294 258.749C95.3444 257.08 94.6293 254.935 92.9608 253.981L83.4263 248.499C81.7578 247.546 79.6126 248.022 78.6591 249.453L74.607 254.697C74.1302 255.412 73.4152 255.65 72.7001 255.412C71.985 255.173 71.2699 254.935 70.5549 254.935C69.8398 254.697 69.1247 254.22 69.1247 253.505L68.1712 246.831C67.9329 244.924 66.2643 243.494 64.3575 243.494H53.1545C51.2476 243.494 49.5791 244.924 49.3407 246.831L48.3872 253.505C48.3872 254.22 47.6722 254.935 46.9571 254.935C46.242 255.173 45.5269 255.412 44.8118 255.412C44.0967 255.65 43.3817 255.412 42.905 254.697L38.8528 249.453C37.661 248.022 35.5157 247.546 34.0856 248.499L24.5511 253.981C22.8826 254.935 22.1675 256.842 22.8826 258.749L25.5046 264.946C25.743 265.661 25.5046 266.376 25.0279 267.091C24.5511 267.568 24.0744 268.045 23.5977 268.521C23.121 268.998 22.1675 269.237 21.4525 268.998L15.255 266.376C13.5865 265.661 11.4413 266.376 10.4878 268.045L5.00555 277.579C4.0521 279.248 4.52881 281.393 5.95898 282.346L11.2029 286.399C11.918 286.875 12.1564 287.59 11.918 288.305C11.6796 289.021 11.4413 289.736 11.4413 290.451C11.2029 291.166 10.7262 291.881 10.0111 291.881L3.33699 292.834C1.4301 293.073 -5.34058e-05 294.741 -5.34058e-05 296.648V307.851C-5.34058e-05 309.758 1.4301 311.426 3.33699 311.665L10.0111 312.618C10.7262 312.618 11.4413 313.333 11.4413 314.048C11.6796 314.764 11.918 315.479 11.918 316.194C12.1564 316.909 11.918 317.624 11.2029 318.101L5.95898 322.153C4.52881 323.345 4.0521 325.49 5.00555 326.92L10.4878 336.454C11.4413 338.123 13.3482 338.838 15.255 338.123L21.4525 335.501C22.1675 335.263 22.8826 335.501 23.5977 335.978C24.0744 336.454 24.5511 336.931 25.0279 337.408C25.5046 337.885 25.743 338.838 25.5046 339.553L22.8826 345.75C22.1675 347.419 22.8826 349.564 24.5511 350.518L34.0856 356C35.7541 356.953 37.8993 356.477 38.8528 355.047L42.905 349.803C43.3817 349.088 44.0967 348.849 44.8118 349.088C45.5269 349.326 46.242 349.564 46.9571 349.564C47.6722 349.803 48.3872 350.279 48.3872 350.994L49.3407 357.669C50.0558 359.575 51.4859 360.767 53.3928 360.767ZM73.1768 346.704C72.7001 346.704 72.4618 346.704 71.985 346.942C71.27 347.181 70.5548 347.419 70.0781 347.419C68.4096 347.896 67.4562 349.088 67.2178 350.518L66.2643 357.192C66.2643 358.145 65.3109 358.86 64.3575 358.86H53.1545C52.201 358.86 51.486 358.145 51.2476 357.192L50.2942 350.518C50.0558 348.849 48.864 347.657 47.4338 347.419C46.7187 347.181 46.0037 347.181 45.5269 346.942C44.0968 346.466 42.4282 346.942 41.4748 348.134L37.4227 353.378C36.946 354.093 35.7542 354.331 35.0391 353.855L25.5046 348.372C24.7895 347.896 24.3128 346.942 24.7895 345.989L27.4115 339.791C28.1266 338.361 27.6499 336.693 26.458 335.501C25.9813 335.024 25.5046 334.547 25.0279 334.071C23.8361 332.879 22.1676 332.641 20.7374 333.117L14.54 335.739C13.5865 335.978 12.6331 335.739 12.3948 335.024L6.91241 325.49C6.43568 324.775 6.67407 323.583 7.38916 323.106L12.6331 319.054C13.8249 318.101 14.3016 316.432 13.8249 315.002C13.5865 314.287 13.3482 313.572 13.3482 313.095C12.8715 311.426 11.6796 310.473 10.2495 310.235L3.57536 309.281C2.62192 309.281 1.90681 308.328 1.90681 307.374V296.171C1.90681 295.218 2.62192 294.503 3.57536 294.264L10.2495 293.311C11.918 293.073 13.1098 291.881 13.3482 290.451C13.5865 289.736 13.5865 289.021 13.8249 288.544C14.3016 287.114 13.8249 285.445 12.6331 284.492L7.38916 280.44C6.67407 279.963 6.43568 278.771 6.91241 278.056L12.3948 268.521C12.8715 267.806 13.8249 267.33 14.54 267.806L20.7374 270.428C22.1676 271.143 23.8361 270.667 25.0279 269.475C25.5046 268.998 25.9813 268.521 26.458 268.045C27.6499 266.853 27.8882 265.184 27.4115 263.754L24.7895 257.557C24.5511 256.603 24.7895 255.65 25.5046 255.173L35.0391 249.691C35.7542 249.214 36.946 249.453 37.4227 250.168L41.4748 255.412C42.4282 256.603 44.0968 257.08 45.5269 256.603C46.242 256.365 46.9571 256.127 47.4338 256.127C49.1023 255.65 50.0558 254.458 50.2942 253.028L51.2476 246.354C51.2476 245.4 52.201 244.685 53.1545 244.685H64.3575C65.3109 244.685 66.026 245.4 66.2643 246.354L67.2178 253.028C67.4562 254.697 68.6479 255.888 70.0781 256.127C70.7932 256.365 71.5083 256.365 71.985 256.603C73.4152 257.08 75.0837 256.603 76.0371 255.412L80.0893 250.168C80.566 249.453 81.7578 249.214 82.4729 249.691L92.0074 255.173C92.7224 255.65 93.1991 256.603 92.7224 257.557L90.1004 263.754C89.3853 265.184 89.8621 266.853 91.0539 268.045C91.5307 268.521 92.0073 268.998 92.484 269.475C93.6758 270.667 95.3444 270.905 96.7746 270.428L102.972 267.806C103.925 267.568 104.879 267.806 105.356 268.521L110.838 278.056C111.315 278.771 111.076 279.963 110.361 280.44L105.117 284.492C103.925 285.445 103.449 287.114 103.925 288.544C104.164 289.259 104.402 289.974 104.402 290.451C104.879 292.119 106.071 293.073 107.501 293.311L114.175 294.264C115.128 294.264 115.843 295.218 115.843 296.171V307.374C115.843 308.328 115.128 309.043 114.175 309.281L107.501 310.235C105.832 310.473 104.64 311.665 104.402 313.095C104.164 313.81 104.164 314.525 103.925 315.002C103.449 316.432 103.925 318.101 105.117 319.054L110.361 323.106C111.076 323.583 111.315 324.775 110.838 325.49L105.356 335.024C104.879 335.739 103.925 336.216 102.972 335.739L96.7746 333.117C95.3444 332.402 93.6758 332.879 92.484 334.071C92.0073 334.547 91.5307 335.024 91.0539 335.501C89.8621 336.693 89.6237 338.361 90.1004 339.791L92.9608 346.227C93.1992 347.181 92.9608 348.134 92.2457 348.611L82.7113 354.093C81.9962 354.57 80.8044 354.331 80.3277 353.616L76.2755 348.372C75.5604 347.419 74.3687 346.704 73.1768 346.704Z" fill="#333333"/>
<path d="M29.0801 281.87C25.9815 285.922 24.0746 290.451 23.1211 295.456C22.8828 296.41 21.4526 295.933 21.6909 294.98C22.6444 289.974 24.7896 285.207 27.8883 281.155C28.3651 280.44 29.7952 281.155 29.0801 281.87Z" fill="#333333"/>
<path d="M22.8823 298.793C22.8823 299.747 22.6439 300.7 22.6439 301.654C22.6439 301.892 22.6439 302.13 22.4056 302.13C22.1672 302.369 22.1673 302.369 21.9289 302.369C21.4522 302.369 21.2138 302.13 21.2138 301.654C21.2138 300.7 21.4521 299.747 21.4521 298.793C21.4521 298.555 21.4522 298.317 21.6905 298.317C21.9289 298.078 21.9288 298.078 22.1672 298.078C22.4056 298.078 22.8823 298.317 22.8823 298.793Z" fill="#333333"/>
<path d="M89.3856 283.062C92.0076 288.544 93.6761 294.503 93.9144 300.7C93.9144 301.654 92.4842 301.654 92.4842 300.7C92.2459 294.741 90.5774 289.021 88.1938 283.777C87.7171 282.823 89.1472 282.108 89.3856 283.062Z" fill="#333333"/>
<path d="M93.9141 305.229C94.1525 306.421 94.1525 307.851 93.6757 309.043C93.4374 309.52 93.199 309.758 92.7223 309.52C92.2456 309.52 92.0073 309.043 92.2456 308.566C92.2456 308.328 92.4839 308.089 92.4839 307.851V307.613C92.4839 307.613 92.4839 307.613 92.4839 307.374V307.136C92.4839 306.898 92.4839 306.659 92.4839 306.421C92.4839 306.183 92.4839 306.183 92.4839 305.944V305.706C92.4839 305.229 92.484 304.991 92.9607 304.752C93.4374 304.514 93.9141 304.752 93.9141 305.229Z" fill="#333333"/>
<path d="M79.1356 337.885C76.5136 338.838 73.8916 340.03 71.2696 340.983C70.7929 341.222 70.5545 340.745 70.3162 340.507C70.3162 340.03 70.5546 339.791 70.7929 339.553C73.4149 338.6 76.0368 337.408 78.6588 336.454C79.1355 336.216 79.3739 336.693 79.6122 336.931C79.8506 337.408 79.6123 337.885 79.1356 337.885Z" fill="#333333"/>
<path d="M68.1714 341.937C67.4563 342.175 66.7412 342.175 66.0262 342.413C65.7878 342.413 65.5494 342.413 65.5494 342.413C65.311 342.413 65.311 342.175 65.311 341.937C65.311 341.46 65.3111 340.983 65.7878 340.983C66.5029 340.745 67.2179 340.745 67.933 340.507C68.1714 340.507 68.4098 340.507 68.4098 340.507C68.6481 340.507 68.6481 340.745 68.6481 340.983C68.6481 341.222 68.6481 341.698 68.1714 341.937Z" fill="#333333"/>
<path d="M56.4922 258.987C54.5853 258.987 52.9168 259.464 51.2482 260.417C51.0099 260.656 50.5332 260.417 50.2948 260.179C50.0565 259.94 50.2948 259.464 50.5332 259.225C52.4401 258.272 54.347 257.557 56.4922 257.557C56.9689 257.557 57.2073 257.795 57.2073 258.272C57.2073 258.749 56.9689 258.987 56.4922 258.987Z" fill="#333333"/>
<path d="M47.4343 261.847C46.9575 262.086 46.7192 262.324 46.2424 262.562H46.0041H45.7658C45.5274 262.562 45.289 262.324 45.289 262.324C45.289 262.086 45.0507 261.847 45.289 261.847C45.289 261.609 45.5274 261.609 45.5274 261.371C46.0041 261.132 46.2425 260.894 46.7192 260.656H46.9576H47.1959C47.4342 260.656 47.6726 260.894 47.6726 260.894C47.6726 261.132 47.911 261.371 47.6726 261.371C47.6726 261.609 47.4343 261.847 47.4343 261.847Z" fill="#333333"/>
<path d="M85.5716 259.702C85.3333 258.987 85.0949 258.272 84.8566 257.557C84.8566 257.318 84.8566 257.08 84.8566 257.08C84.8566 256.842 85.0949 256.842 85.3332 256.842C85.5716 256.842 85.81 256.842 85.81 256.842C86.0484 256.842 86.0484 257.08 86.0484 257.318C86.2867 258.034 86.5251 258.749 86.7634 259.464C86.7634 259.702 86.7634 259.94 86.7634 259.94C86.7634 260.179 86.5251 260.179 86.2867 260.179C86.0484 260.179 85.81 260.179 85.81 260.179C85.81 259.94 85.81 259.702 85.5716 259.702Z" fill="#333333"/>
<path d="M88.9088 259.464C88.6705 258.987 88.4321 258.749 88.1938 258.272V258.034V257.795C88.1938 257.557 88.4322 257.318 88.4322 257.318C88.6705 257.318 88.9088 257.08 88.9088 257.318C89.1472 257.318 89.1472 257.557 89.3856 257.557C89.624 258.034 89.8623 258.272 90.1006 258.749V258.987V259.225C90.1006 259.464 89.8623 259.702 89.8623 259.702C89.624 259.702 89.3856 259.94 89.3856 259.702C89.1472 259.702 89.1472 259.702 88.9088 259.464Z" fill="#333333"/>
<path d="M30.0333 345.274C29.795 344.559 29.5566 343.844 29.3182 343.128C29.3182 342.89 29.0799 342.89 29.0799 342.652C29.0799 342.89 29.0799 342.413 29.0799 342.413V342.175C28.8415 341.937 28.8415 341.46 28.6031 341.222C28.3648 340.983 28.6032 340.507 28.8415 340.268C29.0799 340.03 29.5566 340.268 29.7949 340.507C30.51 341.937 30.9868 343.128 31.4635 344.797C31.4635 345.274 31.4635 345.512 30.9867 345.75C30.7484 345.989 30.2717 345.75 30.0333 345.274Z" fill="#333333"/>
<path d="M33.1316 343.605C32.8933 343.367 32.8933 343.129 32.6549 342.89V342.652V342.413C32.6549 342.413 32.6549 342.175 32.8932 342.175L33.1316 341.937C33.1316 341.937 33.1316 341.937 33.37 341.937C33.6084 341.937 33.6084 341.937 33.8467 341.937C33.8467 341.937 33.8467 341.937 34.085 341.937L34.3234 342.175C34.5618 342.413 34.5618 342.652 34.8002 342.89V343.129V343.367C34.8002 343.367 34.8002 343.605 34.5618 343.605L34.3234 343.844C34.3234 343.844 34.3234 343.844 34.085 343.844C33.8467 343.844 33.8467 343.844 33.6084 343.844C33.6084 343.844 33.6084 343.844 33.37 343.844C33.1316 343.844 33.1316 343.844 33.1316 343.605Z" fill="#333333"/>
<path d="M5.95837 303.322C5.48164 302.369 5.00491 301.415 4.52819 300.462C4.28982 300.224 4.5282 299.747 4.76656 299.508C5.00492 299.27 5.48163 299.508 5.71999 299.747C6.19671 300.7 6.67345 301.654 7.15017 302.607C7.38853 302.845 7.15016 303.322 6.9118 303.561C6.67344 303.561 5.95837 303.561 5.95837 303.322Z" fill="#333333"/>
<path d="M104.64 325.728C104.878 326.92 104.878 328.112 104.402 329.065C104.402 329.304 104.163 329.304 104.163 329.542C103.925 329.542 103.687 329.78 103.687 329.542C103.448 329.542 103.448 329.304 103.21 329.304C103.21 329.065 102.971 328.827 103.21 328.827C103.21 328.588 103.448 328.35 103.448 328.112C103.448 327.873 103.448 327.873 103.448 327.635C103.448 327.635 103.448 327.635 103.448 327.397C103.448 327.158 103.448 326.92 103.448 326.682C103.448 326.682 103.448 326.443 103.448 326.205V325.966C103.448 325.49 103.448 325.251 103.925 325.013C104.163 325.251 104.64 325.49 104.64 325.728Z" fill="#333333"/>
<path d="M102.257 325.013C102.257 325.728 102.257 326.443 102.257 327.158C102.257 327.635 102.019 327.873 101.542 327.873C101.065 327.873 100.827 327.635 100.827 327.158C100.827 326.443 100.827 325.728 100.827 325.013C100.827 324.536 101.065 324.298 101.542 324.298C101.78 324.298 102.257 324.536 102.257 325.013Z" fill="#333333"/>
<path d="M369.936 467.076H438.346V547.881H369.936V467.076Z" fill="#333333"/>
<path d="M325.124 563.374H482.919L489.355 543.114L323.218 540.015L325.124 563.374Z" fill="#333333"/>
<path d="M189.259 475.181H622.123L631.419 140.522L181.155 133.609L189.259 475.181Z" fill="#9BD5E4"/>
<path d="M187.829 476.611H623.553L632.849 139.091L179.486 132.179L187.829 476.611ZM620.693 473.512H190.689L182.585 135.039L629.75 141.952L620.693 473.512Z" fill="#333333"/>
<path d="M612.827 155.062H194.98L203.084 448.246H601.386L612.827 155.062Z" fill="#FBFBFB"/>
<path d="M388.529 464.454H423.806C424.521 464.454 425.237 463.739 425.237 463.024C425.237 462.309 424.521 461.594 423.806 461.594H388.529C387.814 461.594 387.099 462.309 387.099 463.024C387.099 463.739 387.814 464.454 388.529 464.454Z" fill="#333333"/>
<path d="M230.972 163.881C223.583 179.136 216.194 194.153 208.805 209.408C208.09 210.6 206.183 209.646 206.898 208.216C214.287 192.961 221.676 177.944 229.066 162.689C229.781 161.497 231.688 162.451 230.972 163.881Z" fill="#1B2844"/>
<path d="M230.257 188.671C226.205 197.728 221.914 206.786 217.862 215.605C217.147 217.035 215.24 215.844 215.955 214.413C220.008 205.356 224.298 196.298 228.35 187.479C228.827 186.049 230.734 187.24 230.257 188.671Z" fill="#1B2844"/>
<path d="M85.3334 137.423H109.169V161.259H85.3334V137.423Z" fill="#0078E8"/>
<path d="M91.0539 168.648H117.512V142.19H91.0539V168.648ZM115.367 166.503H92.9608V144.097H115.367V166.503Z" fill="#333333"/>
<path d="M77.2282 211.315C77.2282 214.175 79.6118 216.32 82.2338 216.32C85.0941 216.32 87.2394 213.937 87.2394 211.315C87.2394 208.454 84.8558 206.309 82.2338 206.309C79.3734 206.309 77.2282 208.693 77.2282 211.315Z" fill="#333333"/>
<path d="M108.692 202.495C108.692 204.641 110.361 206.309 112.506 206.309C114.651 206.309 116.32 204.641 116.32 202.495C116.32 200.35 114.651 198.682 112.506 198.682C110.599 198.682 108.692 200.35 108.692 202.495Z" fill="#333333"/>
<path d="M343.002 75.6873C340.896 75.6873 339.188 73.9798 339.188 71.8735C339.188 69.7672 340.896 68.0597 343.002 68.0597C345.108 68.0597 346.816 69.7672 346.816 71.8735C346.816 73.9798 345.108 75.6873 343.002 75.6873Z" fill="#333333"/>
<path d="M452.41 518.801C452.41 520.946 454.078 522.614 456.223 522.614C458.369 522.614 460.037 520.946 460.037 518.801C460.037 516.655 458.369 514.987 456.223 514.987C454.078 514.987 452.41 516.655 452.41 518.801Z" fill="#333333"/>
<path d="M104.641 231.575C104.641 234.913 107.263 237.535 110.6 237.535C113.937 237.535 116.559 234.913 116.559 231.575C116.559 228.238 113.937 225.616 110.6 225.616C107.263 225.616 104.641 228.238 104.641 231.575Z" fill="#333333"/>
<path d="M336.566 52.3279C336.566 55.665 339.187 58.287 342.525 58.287C345.862 58.287 348.484 55.665 348.484 52.3279C348.484 48.9909 345.862 46.3689 342.525 46.3689C339.426 46.3689 336.566 48.9909 336.566 52.3279Z" fill="#333333"/>
<path d="M460.037 505.214C460.037 508.551 462.659 511.173 465.996 511.173C469.333 511.173 471.955 508.551 471.955 505.214C471.955 501.877 469.333 499.255 465.996 499.255C462.659 499.255 460.037 501.877 460.037 505.214Z" fill="#333333"/>
<path d="M861.199 462.786C861.199 462.786 867.158 541.683 865.251 563.374H704.834L692.439 499.017L861.199 462.786Z" fill="#333333"/>
<path d="M862.153 505.691C846.421 498.778 834.503 484 831.166 467.315C830.927 466.6 832.119 466.361 832.119 467.076C835.456 483.762 847.136 498.063 862.629 504.976C863.344 504.976 862.629 505.929 862.153 505.691Z" fill="white"/>
<path d="M854.763 501.162C857.861 520.946 858.815 540.968 856.908 560.752C856.908 561.467 855.716 561.467 855.955 560.752C857.623 540.968 856.908 520.946 853.809 501.4C853.571 500.924 854.763 500.447 854.763 501.162Z" fill="white"/>
<path d="M760.133 562.421C762.04 548.596 760.371 534.533 755.366 521.661C755.128 520.946 756.081 520.708 756.319 521.423C761.325 534.532 762.993 548.834 761.087 562.659C761.087 563.374 760.133 563.136 760.133 562.421Z" fill="white"/>
<path d="M850.948 549.549C851.187 545.974 851.425 542.637 851.425 539.061C851.425 538.346 852.617 538.346 852.379 539.061C852.14 542.637 851.902 545.974 851.902 549.549C852.14 550.264 850.948 550.264 850.948 549.549Z" fill="white"/>
<path d="M851.188 531.911C850.949 530.48 850.949 528.812 850.711 527.382C850.711 527.143 850.949 526.905 851.188 526.905C851.426 526.905 851.664 527.143 851.664 527.382C851.903 528.812 851.903 530.48 852.141 531.911C852.141 532.149 851.903 532.387 851.664 532.387C851.426 532.626 851.188 532.149 851.188 531.911Z" fill="white"/>
<path d="M838.316 492.343C833.072 486.145 829.497 478.518 828.305 470.413C828.305 469.698 829.258 469.46 829.258 470.175C830.45 478.041 833.787 485.43 839.031 491.628C839.508 492.104 838.793 492.819 838.316 492.343Z" fill="white"/>
<path d="M656.685 360.529C656.685 360.529 670.271 376.737 679.806 380.074C689.34 383.65 680.759 363.628 680.759 363.628L656.685 360.529Z" fill="#1B2844"/>
<path d="M673.609 342.175L647.866 407.724L677.661 430.607L696.968 366.726L673.609 342.175Z" fill="#F2A9AA"/>
<path d="M880.745 356C880.745 356 868.827 368.872 849.043 371.017C829.259 373.162 855.002 343.605 855.002 343.605L880.745 356Z" fill="#1B2844"/>
<path d="M814.718 295.456C814.718 295.456 843.083 288.305 880.982 356.238L831.165 360.767L814.718 295.456Z" fill="#93C9FE"/>
<path d="M778.964 279.963C778.964 279.963 831.642 292.834 837.839 303.084C844.037 313.095 865.966 465.884 865.966 465.884C865.966 465.884 766.093 496.871 679.329 484.715C679.329 484.715 672.178 335.739 686.242 318.339C700.543 300.939 716.99 290.927 716.99 290.927L778.964 279.963Z" fill="#93C9FE"/>
<path d="M708.409 216.797C696.729 211.553 686.003 204.164 676.707 195.106C672.178 190.816 667.887 184.618 669.794 178.659C670.986 174.846 674.8 171.985 678.614 171.032C682.427 169.84 686.718 170.078 690.77 170.555C704.833 171.508 718.658 172.224 732.722 173.177C739.396 173.654 746.547 174.369 750.837 179.374C752.267 181.281 753.221 183.903 752.267 185.81C758.941 182.711 768.476 188.909 769.906 196.06C771.336 203.926 764.9 210.6 761.802 218.227C758.941 225.616 759.18 234.674 753.697 240.633C747.262 247.784 735.344 247.069 727.478 241.587C719.612 236.104 712.938 225.378 708.409 216.797Z" fill="#1B2844"/>
<path d="M747.501 227.762C747.501 227.762 751.314 239.441 741.541 247.069C729.385 256.603 715.799 260.894 710.555 257.318C706.026 254.458 701.258 243.255 699.113 212.268C699.113 212.268 696.73 190.101 711.508 186.525C727.717 182.473 739.396 204.402 742.257 212.268C745.355 220.134 747.501 227.762 747.501 227.762Z" fill="#F2A9AA"/>
<path d="M720.327 234.674C719.135 237.058 716.513 238.488 714.13 238.25C713.891 238.25 713.653 238.011 713.653 237.773C713.653 237.534 713.891 237.296 714.13 237.296C716.275 237.534 718.658 236.343 719.612 234.197C719.85 233.959 720.089 233.959 720.327 233.959C720.327 234.197 720.565 234.436 720.327 234.674Z" fill="#1B2844"/>
<path d="M721.757 240.633C721.518 241.11 721.042 241.587 720.565 241.825C720.088 242.063 719.373 242.302 718.896 242.063C718.658 242.063 718.42 241.587 718.42 241.348C718.42 241.11 718.896 240.872 719.135 240.872C719.135 240.872 719.135 240.872 719.373 240.872C719.373 240.872 719.373 240.872 719.611 240.872H719.85C719.85 240.872 719.85 240.872 720.088 240.872C720.088 240.872 720.088 240.872 720.326 240.872C720.326 240.872 720.326 240.872 720.565 240.872C720.565 240.872 720.565 240.872 720.565 240.633C720.565 240.633 720.565 240.395 720.803 240.395L721.041 240.156C721.28 240.156 721.28 240.156 721.518 240.156C721.757 239.918 721.995 240.395 721.757 240.633Z" fill="#1B2844"/>
<path d="M722.233 219.419C722.472 221.088 723.663 222.279 724.617 222.041C725.57 221.803 726.047 220.373 725.809 218.704C725.57 217.035 724.378 215.844 723.425 216.082C722.472 216.32 721.995 217.751 722.233 219.419Z" fill="#1B2844"/>
<path d="M723.426 229.43C724.141 231.575 727.001 232.529 730.1 231.575C732.96 230.622 734.867 228 734.152 225.855C733.437 223.71 730.577 222.756 727.478 223.71C724.379 224.663 722.711 227.285 723.426 229.43Z" fill="#EA8C97"/>
<path d="M701.735 232.529C702.689 234.674 705.072 235.628 706.979 234.674C708.886 233.721 709.839 231.337 708.886 229.43C707.933 227.285 705.549 226.332 703.642 227.285C701.735 228.238 700.782 230.622 701.735 232.529Z" fill="#EA8C97"/>
<path d="M712.223 217.035C712.938 219.181 713.176 221.326 712.461 223.471C711.985 224.901 711.269 226.093 710.316 227.285C710.078 227.762 709.601 228 709.124 228.477C708.647 228.953 708.647 229.43 709.363 229.669C710.316 230.145 711.269 230.145 712.223 230.86C712.938 231.575 713.415 232.529 712.938 233.482C712.7 234.197 711.746 233.482 711.985 233.006C712.7 231.814 710.316 231.337 709.363 230.86C708.647 230.622 707.932 230.384 707.694 229.43C707.456 228.477 708.409 227.523 709.124 227.047C710.078 226.093 710.793 225.14 711.269 223.71C711.985 221.564 711.746 219.419 711.031 217.512C711.031 216.797 711.985 216.559 712.223 217.035Z" fill="#1B2844"/>
<path d="M702.449 221.564C702.688 222.994 703.641 223.948 704.356 223.948C705.31 223.71 705.786 222.518 705.548 221.088C705.31 219.657 704.356 218.704 703.641 218.704C702.688 218.942 702.211 220.134 702.449 221.564Z" fill="#1B2844"/>
<path d="M729.624 210.6C730.1 210.6 730.339 210.361 730.577 210.123C730.815 209.646 730.577 209.17 730.1 208.931C728.193 206.309 725.095 203.449 721.519 203.687C720.566 203.687 719.851 203.926 719.374 204.641C718.897 205.356 718.897 206.071 719.136 206.786C719.374 207.501 719.851 207.978 720.566 208.454C722.95 210.361 726.048 210.6 728.909 210.6C729.385 210.838 729.385 210.838 729.624 210.6Z" fill="#1B2844"/>
<path d="M701.019 215.605C700.781 215.605 700.542 215.605 700.304 215.367C700.066 215.129 700.066 214.652 700.304 214.413C700.781 211.792 701.973 208.931 704.356 207.978C704.833 207.739 705.548 207.739 706.025 207.978C706.501 208.216 706.74 208.931 706.74 209.408C706.74 209.885 706.502 210.6 706.263 211.076C705.31 212.983 703.403 214.175 701.496 215.129C701.258 215.605 701.258 215.605 701.019 215.605Z" fill="#1B2844"/>
<path d="M728.67 222.994C728.908 222.994 729.385 222.756 729.385 222.518C729.385 222.041 729.146 221.803 728.908 221.803C728.67 221.803 724.617 221.088 721.757 221.564C721.28 221.564 721.042 222.041 721.28 222.279C721.28 222.756 721.757 222.994 721.995 222.756C724.379 222.279 728.431 222.994 728.67 222.994Z" fill="#1B2844"/>
<path d="M702.45 225.378C705.31 224.663 707.217 225.14 707.456 225.14C707.694 225.14 708.171 224.901 708.171 224.663C708.171 224.186 707.932 223.948 707.694 223.948C707.694 223.948 705.31 223.471 702.45 224.186C702.212 224.186 701.973 224.663 701.973 224.901C701.735 225.14 701.973 225.378 702.45 225.378Z" fill="#1B2844"/>
<path d="M741.78 213.937C740.588 219.657 743.21 225.14 747.5 226.093C752.029 227.047 756.558 222.994 757.75 217.274C758.942 211.553 756.32 206.071 752.029 205.117C747.739 204.402 742.971 208.216 741.78 213.937Z" fill="#F2A9AA"/>
<path d="M752.982 211.315C749.168 213.46 747.261 218.227 748.215 222.518C748.453 223.233 747.261 223.471 747.261 222.756C746.07 217.989 748.215 212.745 752.505 210.361C752.982 209.885 753.697 210.838 752.982 211.315Z" fill="#1B2844"/>
<path d="M748.931 216.082C751.314 217.035 752.744 220.134 752.268 222.518C752.029 223.233 751.076 222.994 751.314 222.279C751.791 220.134 750.599 217.751 748.454 217.035C748.216 217.035 748.216 216.559 748.216 216.32C748.216 215.844 748.454 215.844 748.931 216.082Z" fill="#1B2844"/>
<path d="M747.023 226.093C747.023 226.093 753.221 263.754 758.941 269.713C764.662 275.672 778.964 279.963 778.964 279.963C778.964 279.963 737.966 338.123 716.99 290.451C716.99 290.451 725.809 286.399 727.239 278.056C728.908 268.283 726.286 249.691 726.286 249.691L747.023 226.093Z" fill="#F2A9AA"/>
<path d="M727.001 255.888C727.001 255.888 748.931 245.4 748.215 232.291C748.215 232.291 751.314 251.836 727.716 264.231L727.001 255.888Z" fill="#1B2844"/>
<path d="M744.163 188.909C740.349 183.427 733.914 181.758 727.716 180.805C724.618 180.328 721.519 179.851 718.182 179.374C714.606 178.898 711.269 178.183 707.694 178.421C706.979 178.421 706.979 177.229 707.694 177.229C711.269 176.991 714.606 177.467 718.182 178.183C721.996 178.898 725.571 179.374 729.385 180.089C735.344 181.281 741.541 183.427 745.117 188.67C745.593 188.909 744.64 189.624 744.163 188.909Z" fill="white"/>
<path d="M689.817 178.898C685.526 179.374 679.567 180.566 680.044 186.049C680.282 188.909 682.189 191.292 684.096 193.438C686.003 195.583 688.148 197.49 690.293 199.397C690.77 199.873 690.055 200.827 689.34 200.35C686.718 198.205 684.334 195.821 682.189 193.199C680.282 191.054 678.375 188.194 678.614 185.095C679.09 179.613 685.049 178.183 689.578 177.944C690.532 177.706 690.532 178.898 689.817 178.898Z" fill="white"/>
<path d="M687.671 190.101C689.101 191.531 690.77 192.961 692.2 194.391C692.438 194.63 692.438 195.106 692.2 195.345C691.961 195.583 691.485 195.583 691.246 195.345C689.816 193.914 688.148 192.484 686.717 191.054C686.479 190.816 686.479 190.339 686.717 190.101C687.194 189.862 687.432 189.862 687.671 190.101Z" fill="white"/>
<path d="M725.571 226.57C726.286 226.57 727.001 226.57 727.716 226.57C730.815 226.332 733.675 225.378 735.82 223.948C737.965 222.518 739.157 220.849 738.919 218.942C738.681 217.274 737.25 215.605 734.867 214.652C732.483 213.698 729.623 213.46 726.286 213.698C719.612 214.413 714.606 217.751 715.083 221.088C715.56 224.425 720.088 226.57 725.571 226.57ZM728.908 214.413C731.053 214.413 733.198 214.652 734.867 215.367C737.012 216.32 738.204 217.512 738.442 218.942C738.681 220.373 737.489 221.803 735.582 222.995C733.675 224.186 730.815 225.14 727.716 225.378C721.519 225.855 716.275 223.948 716.036 220.849C715.798 217.751 720.565 214.89 726.524 214.175C727.478 214.413 728.193 214.413 728.908 214.413Z" fill="#1B2844"/>
<path d="M698.636 228.715C699.113 228.715 699.59 228.715 700.067 228.715C702.688 228.477 705.072 227.523 706.741 226.332C708.409 224.901 709.363 223.233 709.124 221.564C708.886 217.989 704.119 215.605 698.875 216.32C696.253 216.559 693.869 217.512 692.201 218.704C690.532 220.134 689.579 221.803 689.817 223.471C690.055 225.14 691.247 226.57 693.154 227.762C694.823 228.238 696.729 228.715 698.636 228.715ZM700.543 216.797C704.834 216.797 708.409 218.704 708.648 221.564C708.886 222.994 707.932 224.425 706.502 225.616C704.834 226.808 702.689 227.762 700.305 228C697.921 228.238 695.538 227.762 693.631 227.047C691.962 226.093 690.77 224.901 690.77 223.471C690.532 222.041 691.486 220.611 692.916 219.419C694.584 218.227 696.729 217.274 699.113 217.035C699.59 216.797 700.067 216.797 700.543 216.797Z" fill="#1B2844"/>
<path d="M794.696 395.33L788.737 372.209C788.737 372.209 692.678 397.236 673.847 407.486C673.847 407.486 627.128 343.367 602.339 338.361L594.711 358.384L678.614 436.328L794.696 395.33Z" fill="#333333"/>
<path d="M588.99 355.285C588.99 355.285 642.86 401.05 661.69 413.683C661.69 413.683 667.173 429.654 691.486 413.683C691.486 413.683 759.895 394.376 805.184 390.562L811.381 530.242C811.381 530.242 745.355 535.724 707.456 544.544C707.456 544.544 687.433 552.648 676.469 535.248C676.469 535.248 669.318 525.951 619.977 483.285L588.99 355.285Z" fill="#0078E8"/>
<path d="M610.205 443.717C610.682 443.717 610.92 443.24 610.92 443.002L590.183 357.192C630.943 392.946 659.307 412.73 661.214 414.16C663.598 417.974 666.697 420.357 670.51 421.073C679.807 422.979 690.533 415.114 691.725 414.16C749.17 397.713 804.708 391.277 805.184 391.039C805.423 391.039 805.9 390.562 805.661 390.324C805.661 390.086 805.184 389.609 804.946 389.847C804.469 389.847 748.931 396.521 691.248 412.968H691.01C691.01 412.968 679.807 421.549 670.749 419.642C667.173 418.927 664.313 416.782 662.168 413.207L661.929 412.968C661.691 412.73 632.134 392.231 589.229 354.57L587.799 353.14L609.49 443.002C609.728 443.479 609.967 443.717 610.205 443.717Z" fill="#1B2844"/>
<path d="M707.456 545.259C707.932 545.259 708.409 544.782 708.171 544.305L692.201 413.445C692.201 412.968 691.724 412.73 691.247 412.73C690.77 412.73 690.532 413.207 690.532 413.683L706.502 544.544C706.741 545.02 706.979 545.259 707.456 545.259Z" fill="#1B2844"/>
<path d="M669.318 477.326C669.795 477.326 670.271 476.849 670.033 476.372L662.406 414.399C662.406 413.922 661.929 413.683 661.452 413.683C660.975 413.683 660.737 414.16 660.737 414.637L668.365 476.611C668.603 477.087 669.08 477.326 669.318 477.326Z" fill="#1B2844"/>
<path d="M673.608 510.458C674.085 510.458 674.561 509.981 674.323 509.505L671.463 488.29C671.463 487.814 670.986 487.575 670.509 487.575C670.032 487.575 669.794 488.052 669.794 488.529L672.654 509.743C672.893 509.981 673.131 510.458 673.608 510.458Z" fill="#1B2844"/>
<path d="M780.633 421.311C761.088 422.264 741.78 424.171 722.235 427.032C721.52 427.032 721.281 426.078 721.996 426.078C741.304 423.218 760.849 421.311 780.633 420.357C781.348 420.119 781.348 421.311 780.633 421.311Z" fill="#1B2844"/>
<path d="M763.232 429.177C758.942 430.13 754.413 430.369 749.884 430.369C749.169 430.369 749.169 429.415 749.884 429.415C754.174 429.415 758.703 428.938 762.994 428.223C763.709 427.985 763.947 429.177 763.232 429.177Z" fill="#1B2844"/>
<path d="M804.469 495.68C804.707 504.976 805.422 514.272 806.614 523.33C806.614 524.045 805.66 524.045 805.66 523.33C804.469 514.272 803.754 504.976 803.515 495.68C803.515 494.965 804.469 494.965 804.469 495.68Z" fill="#1B2844"/>
<path d="M803.277 480.901C803.039 482.57 802.8 484.238 802.562 485.907C802.562 486.145 802.324 486.384 802.085 486.384C801.847 486.384 801.609 486.145 801.609 485.907C801.847 484.238 802.085 482.57 802.324 480.901C802.324 480.663 802.562 480.425 802.8 480.425C803.039 480.425 803.277 480.663 803.277 480.901Z" fill="#1B2844"/>
<path d="M690.771 413.683C688.864 407.963 682.19 407.009 676.946 407.248C671.225 407.724 665.743 409.631 662.406 414.398C661.929 414.875 660.975 414.398 661.452 413.922C665.266 408.678 671.225 406.533 677.422 406.056C683.143 405.579 689.579 407.248 691.724 413.207C691.962 414.16 691.009 414.398 690.771 413.683Z" fill="#1B2844"/>
<path d="M665.028 411.061C661.929 406.294 659.069 401.527 655.97 396.76C652.157 391.039 647.866 385.557 643.099 380.551C642.622 380.074 643.337 379.359 643.814 379.836C648.581 384.603 652.872 390.086 656.685 395.806C659.784 400.573 662.883 405.817 665.982 410.585C666.458 411.061 665.505 411.538 665.028 411.061Z" fill="#1B2844"/>
<path d="M785.638 386.51C770.621 386.51 755.604 388.894 741.303 393.661C740.587 393.899 740.349 392.946 741.064 392.708C755.366 387.94 770.383 385.557 785.638 385.318C786.353 385.557 786.353 386.51 785.638 386.51Z" fill="#1B2844"/>
<path d="M730.339 396.76C715.799 399.143 701.497 402.957 687.434 408.201C686.719 408.439 686.48 407.486 687.195 407.248C701.02 402.004 715.322 398.19 730.1 395.806C730.815 395.568 731.054 396.521 730.339 396.76Z" fill="#1B2844"/>
<path d="M760.134 383.888C754.652 385.08 749.169 386.51 743.687 388.417C742.972 388.655 742.734 387.702 743.449 387.464C748.693 385.557 754.175 384.127 759.896 382.935C760.611 382.935 760.849 383.888 760.134 383.888Z" fill="#1B2844"/>
<path d="M640.238 377.214C634.756 372.209 629.988 366.488 624.744 361.244C618.07 354.57 610.443 348.849 602.1 344.32C601.385 344.082 602.1 343.128 602.577 343.367C610.919 347.896 618.309 353.378 624.983 360.052C630.465 365.534 635.232 371.255 640.715 376.499C641.668 376.976 640.953 377.691 640.238 377.214Z" fill="#1B2844"/>
<path d="M644.767 391.516C634.041 381.981 623.076 372.924 611.873 364.104C611.396 363.628 611.873 362.674 612.35 363.151C623.791 371.97 634.756 381.028 645.482 390.562C645.959 391.039 645.244 391.754 644.767 391.516Z" fill="#1B2844"/>
<path d="M614.256 432.991C615.925 441.81 617.593 450.629 619.262 459.449C619.5 460.164 618.309 460.402 618.309 459.687C616.64 450.868 614.971 442.048 613.303 433.229C613.065 432.514 614.256 432.275 614.256 432.991Z" fill="#1B2844"/>
<path d="M790.016 354.146L758.001 330.895L839.097 219.231L871.111 242.481L790.016 354.146Z" fill="#9B83BC"/>
<path d="M757.988 330.972L756.558 366.726L790.167 354.093L757.988 330.972Z" fill="#FCEDD9"/>
<path d="M757.988 330.972C757.988 330.972 764.9 327.397 765.615 336.454C765.615 336.454 780.632 331.449 782.301 348.611C782.301 348.611 792.073 345.512 789.928 354.093L768.476 345.989L757.988 330.972Z" fill="#FCEDD9"/>
<path d="M771.575 328.35C771.813 328.35 771.813 328.35 771.813 328.112L808.759 277.102C808.997 276.864 808.759 276.626 808.759 276.626C808.521 276.387 808.282 276.626 808.282 276.626L771.336 327.635C771.098 327.873 771.098 328.112 771.575 328.35Z" fill="#1B2844"/>
<path d="M816.148 266.853C816.386 266.853 816.386 266.853 816.386 266.615L831.165 246.354C831.403 246.116 831.165 245.877 831.165 245.877C830.926 245.639 830.688 245.877 830.688 245.877L815.91 266.138C815.671 266.376 815.91 266.615 816.148 266.853Z" fill="#1B2844"/>
<path d="M796.126 331.21C796.364 331.21 796.364 331.21 796.364 330.972L863.582 238.25C863.82 238.011 863.582 237.773 863.582 237.773C863.344 237.535 863.105 237.773 863.105 237.773L795.887 330.495C795.649 330.734 795.649 330.972 796.126 331.21C795.887 331.21 795.887 330.972 796.126 331.21Z" fill="#1B2844"/>
<path d="M756.558 366.726L757.035 357.43L765.139 363.389L756.558 366.726Z" fill="#1B2844"/>
<path d="M871.229 242.475L839.215 219.225L844.117 212.475L876.131 235.725L871.229 242.475Z" fill="#0078E8"/>
<path d="M876.93 214.652L864.059 205.356C858.815 201.542 851.426 202.734 847.612 207.978L844.275 212.745L876.215 236.104L879.552 231.337C883.366 225.855 882.174 218.466 876.93 214.652Z" fill="#0078E8"/>
<path d="M803.277 336.216C803.277 336.216 812.573 325.49 809.475 323.345C806.376 320.961 791.121 316.432 790.167 311.903C789.214 307.374 809.236 312.142 811.62 313.81C814.003 315.479 816.387 318.577 816.387 318.577C816.387 318.577 814.957 311.188 812.812 309.996C810.428 308.805 797.08 304.037 796.126 298.793C795.173 293.549 822.108 303.561 823.776 306.421C825.445 309.043 824.968 312.38 824.968 312.38C824.968 312.38 825.683 306.659 821.393 302.13C817.102 297.602 806.614 292.596 806.138 287.352C805.661 281.87 828.782 294.503 831.165 299.27C833.549 304.037 831.165 309.52 831.165 309.52C831.165 309.52 831.642 298.078 829.02 294.503C826.398 290.927 820.678 286.16 819.247 282.346C818.056 278.294 839.985 287.59 840.223 291.643C840.462 295.695 828.067 351.71 828.067 351.71L852.141 392.469L822.584 384.603L803.277 336.216Z" fill="#F2A9AA"/>
<path d="M825.683 281.87C825.445 283.062 824.491 284.015 823.299 284.015C821.869 284.015 820.677 283.062 819.486 282.346C819.247 282.108 819.247 281.87 819.486 281.631C819.724 281.393 819.962 281.393 820.201 281.631C820.916 282.346 821.869 283.062 823.061 283.062C823.776 283.062 824.73 282.585 824.73 281.87C824.73 281.631 824.968 281.393 825.206 281.393C825.445 281.393 825.683 281.631 825.683 281.87Z" fill="#1B2844"/>
<path d="M811.857 286.399C811.857 287.59 810.904 288.544 809.951 288.782C808.52 289.02 807.329 288.305 806.137 287.829C805.422 287.59 806.137 286.637 806.614 286.875C807.329 287.352 808.52 287.829 809.474 287.829C809.712 287.829 810.189 287.59 810.427 287.352C810.666 287.114 810.904 286.875 810.904 286.399C810.666 285.683 811.857 285.683 811.857 286.399Z" fill="#1B2844"/>
<path d="M802.8 297.84C803.038 299.27 801.846 300.462 800.654 300.7C798.986 301.177 797.556 300.462 796.126 299.747C795.887 299.508 795.887 299.27 795.887 299.032C796.126 298.793 796.364 298.793 796.602 298.793C797.794 299.27 798.986 299.985 800.178 299.747C801.131 299.508 801.846 298.793 801.846 297.84C801.846 297.602 802.085 297.363 802.323 297.363C802.561 297.363 802.8 297.602 802.8 297.84Z" fill="#1B2844"/>
<path d="M795.887 310.711C795.41 311.665 794.457 312.38 793.265 312.618C792.073 312.857 791.12 312.618 790.166 311.903C789.928 311.665 789.928 311.427 790.166 311.188C790.405 310.95 790.643 310.95 790.882 311.188C791.358 311.665 792.312 311.665 793.027 311.665C793.742 311.426 794.457 310.95 794.934 310.235C795.41 309.52 796.364 310.235 795.887 310.711Z" fill="#1B2844"/>
<path d="M824.968 306.421C825.444 309.52 825.683 312.618 825.444 315.717C825.444 316.432 824.252 316.432 824.491 315.717C824.729 312.618 824.491 309.758 824.014 306.659C823.776 305.944 824.729 305.706 824.968 306.421Z" fill="#1B2844"/>
<path d="M831.404 299.032C832.119 303.084 832.119 307.136 831.404 311.188C831.404 311.903 830.212 311.665 830.451 310.95C831.166 307.136 831.166 303.084 830.451 299.27C830.212 298.555 831.166 298.317 831.404 299.032Z" fill="#1B2844"/>
<path d="M817.102 317.386C817.817 319.769 818.056 322.391 817.341 325.013C817.102 325.728 816.149 325.49 816.387 324.775C816.864 322.391 816.864 320.008 816.149 317.862C815.672 317.147 816.864 316.67 817.102 317.386Z" fill="#1B2844"/>
<path d="M810.189 353.14C810.189 353.14 822.584 460.164 862.39 441.81C880.029 433.706 860.96 357.43 860.96 357.43L824.968 359.575L835.217 371.255L822.346 343.605L810.189 353.14Z" fill="#F2A9AA"/>
<path d="M828.305 350.756C844.037 372.924 857.385 396.76 867.634 421.788C867.873 422.503 866.919 422.741 866.681 422.026C856.431 396.998 843.083 373.162 827.351 351.233C827.113 350.756 827.828 350.279 828.305 350.756Z" fill="#1B2844"/>
<path d="M619.024 431.799C622.837 430.369 631.18 434.659 630.942 429.415C629.988 425.84 626.413 423.695 622.837 423.218C619.262 422.979 615.686 424.171 612.349 425.601C609.966 426.555 608.774 427.747 608.536 428.462C608.536 428.462 607.582 427.032 608.774 425.363C609.966 423.695 612.111 422.741 614.018 422.026C617.832 420.357 621.884 419.166 625.936 417.974C628.081 417.497 630.942 415.829 629.988 413.922C629.511 413.207 628.796 412.73 627.843 412.253C619.739 409.154 610.681 412.253 605.914 419.404C604.007 415.352 606.152 410.585 610.204 408.678C614.256 406.533 618.785 406.533 623.314 405.817C624.267 405.579 625.221 405.341 625.459 404.626C625.698 404.149 625.459 403.672 625.221 403.195C623.791 399.858 619.977 398.428 616.402 398.905C612.826 399.143 609.727 401.05 606.629 402.719C604.007 404.149 601.623 405.579 602.338 408.439C600.908 404.626 601.385 400.573 604.484 397.952C606.629 396.045 609.489 395.091 611.873 393.899C614.495 392.708 616.878 390.801 617.593 387.94C617.832 387.225 617.832 386.272 617.355 385.557C616.64 384.365 614.733 384.365 613.303 384.842C608.536 386.033 604.484 389.371 600.67 392.469C597.571 395.091 594.472 397.952 593.281 401.765C591.85 405.579 592.804 410.585 596.379 412.492C594.472 414.398 595.426 417.735 597.094 419.881C598.524 422.026 600.67 424.171 600.908 427.032C600.908 428.938 600.193 430.845 601.146 432.514C601.862 433.467 602.815 433.944 603.53 434.897C604.245 436.089 604.007 437.519 603.768 438.95C603.53 441.333 603.768 443.479 604.484 445.862C604.96 447.292 605.914 448.246 607.105 448.961C609.251 450.153 613.065 452.298 613.541 452.298C615.686 452.536 614.256 446.577 613.541 444.432C612.588 441.333 612.826 437.996 614.733 435.136C615.925 433.706 617.355 432.514 619.024 431.799Z" fill="#F2A9AA"/>
<path d="M611.396 386.033C611.873 386.987 612.826 387.702 614.018 387.702C615.21 387.94 616.402 387.464 617.117 386.51C617.594 386.033 618.309 386.749 617.832 387.225C616.878 388.417 615.448 388.894 613.78 388.655C612.35 388.417 610.919 387.702 610.204 386.272C610.204 386.033 611.158 385.557 611.396 386.033Z" fill="#1B2844"/>
<path d="M620.453 399.143C620.692 399.858 620.453 400.574 620.692 401.527C620.692 402.004 621.169 402.48 621.645 402.957C622.599 403.911 624.267 403.911 625.459 403.911C626.174 403.911 626.174 404.864 625.459 404.864C623.79 404.864 622.122 404.864 620.93 403.672C620.453 403.196 619.977 402.719 619.738 402.004C619.5 401.289 619.738 400.335 619.5 399.62C619.262 398.905 620.453 398.667 620.453 399.143Z" fill="#1B2844"/>
<path d="M625.221 411.777C625.459 412.492 625.459 412.968 625.698 413.683C625.698 414.16 625.936 414.875 626.413 415.114C626.89 415.59 627.605 415.352 628.081 415.352C628.796 415.352 629.511 415.114 630.227 415.352C630.465 415.352 630.703 415.829 630.703 416.067C630.703 416.305 630.227 416.544 629.988 416.544C629.273 416.305 628.558 416.544 627.843 416.544C627.128 416.544 626.413 416.544 625.698 415.829C624.744 414.875 624.744 413.207 624.506 412.015C624.506 411.777 624.506 411.538 624.983 411.3C624.744 411.3 625.221 411.538 625.221 411.777Z" fill="#1B2844"/>
<path d="M626.651 424.41C626.175 425.84 626.413 427.27 627.366 428.223C628.082 429.177 629.512 429.892 630.704 429.892C631.419 429.892 631.419 430.845 630.704 430.845C629.035 430.845 627.366 430.13 626.413 428.7C625.46 427.27 624.983 425.602 625.46 423.933C625.698 423.456 626.89 423.933 626.651 424.41Z" fill="#1B2844"/>
<path d="M686.242 317.862C686.242 317.862 671.94 337.646 656.685 360.529C656.685 360.529 672.417 362.197 683.62 371.255C694.823 380.551 686.242 317.862 686.242 317.862Z" fill="#93C9FE"/>
<path d="M678.138 372.924C679.568 354.57 684.097 336.693 691.963 320.007C692.201 319.292 693.154 320.007 692.916 320.484C685.289 336.931 680.521 354.808 679.091 372.924C679.33 373.639 678.138 373.639 678.138 372.924Z" fill="#1B2844"/>
<path d="M779.68 281.393C771.575 292.596 759.896 303.799 746.547 307.851C740.588 309.52 733.914 309.52 728.67 306.182C723.188 302.607 720.089 296.41 717.229 290.689C716.991 289.974 717.944 289.497 718.182 290.212C720.804 295.695 723.665 301.415 728.909 304.991C734.629 309.043 742.018 308.566 748.216 306.182C760.611 301.654 771.337 291.166 778.964 280.678C779.203 280.201 779.918 280.678 779.68 281.393Z" fill="#1B2844"/>
<path d="M734.39 376.737C727.478 367.203 719.612 358.145 711.269 349.803C710.792 349.326 711.508 348.611 711.984 349.088C720.565 357.43 728.193 366.488 735.344 376.261C735.82 376.737 734.867 377.214 734.39 376.737Z" fill="#1B2844"/>
<path d="M718.897 366.726C715.322 363.151 712.223 359.337 709.601 355.047C709.124 354.57 710.078 353.855 710.554 354.57C713.176 358.86 716.275 362.674 719.85 366.011C720.089 366.488 719.374 367.203 718.897 366.726Z" fill="#1B2844"/>
<path d="M855.955 463.024C855.478 460.879 855.001 458.495 854.524 456.35C854.286 455.635 855.478 455.397 855.478 456.112C855.955 458.257 856.431 460.64 856.908 462.786C857.146 463.262 856.193 463.501 855.955 463.024Z" fill="#1B2844"/>
<path d="M465.042 176.752L583.746 128.365C586.845 127.173 588.275 123.598 587.083 120.499L543.224 12.76C542.033 9.66127 538.457 8.2311 535.359 9.42291L416.655 57.8102C413.556 59.002 412.126 62.5774 413.318 65.6761L457.176 173.415C458.368 176.514 461.943 178.183 465.042 176.752Z" fill="#93C9FE"/>
<path d="M465.996 178.183L584.461 130.034C588.513 128.365 590.42 123.836 588.752 119.784L542.033 4.89406C540.364 0.841918 535.835 -1.06497 531.783 0.603559L413.079 48.9909C409.027 50.6594 407.12 55.1883 408.789 59.2404L455.508 173.654C456.938 177.944 461.705 180.089 465.996 178.183ZM532.737 3.46389C535.12 2.51045 537.981 3.70225 538.934 6.08586L585.653 120.976C586.606 123.36 585.415 126.22 583.031 127.173L464.804 175.322C462.182 176.514 459.083 175.084 457.891 172.462L411.173 58.0486C410.219 55.665 411.411 52.8046 413.795 51.8512L532.737 3.46389Z" fill="#1B2844"/>
<path d="M543.701 14.1901L413.556 67.3447L409.742 57.8102C409.742 57.8102 408.551 52.3279 414.748 50.6594L532.975 2.51044C532.975 2.51044 537.742 0.603555 540.364 6.08586L543.701 14.1901Z" fill="#1B2844"/>
<path d="M523.202 13.9518C523.679 15.1436 524.871 15.6203 526.063 15.1436C527.254 14.6669 527.731 13.475 527.254 12.2832C526.778 11.0914 525.586 10.6147 524.394 11.0914C523.202 11.5682 522.726 12.9983 523.202 13.9518Z" fill="white"/>
<path d="M529.4 11.5682C529.877 12.76 531.068 13.2367 532.26 12.76C533.452 12.2832 533.929 11.0914 533.452 9.89963C532.975 8.70782 531.784 8.2311 530.592 8.70782C529.4 9.18455 528.923 10.3764 529.4 11.5682Z" fill="white"/>
<path d="M517.004 16.5737C517.481 17.7655 518.673 18.2423 519.865 17.7655C521.057 17.2888 521.533 16.097 521.057 14.9052C520.58 13.7134 519.388 13.2367 518.196 13.7134C517.004 14.1901 516.528 15.3819 517.004 16.5737Z" fill="white"/>
<path d="M541.318 116.209L570.16 104.529C570.637 104.291 570.637 103.814 570.637 103.576C570.398 103.099 569.922 103.099 569.683 103.099L540.842 114.779C540.365 115.017 540.365 115.494 540.365 115.732C540.603 116.209 541.08 116.209 541.318 116.209Z" fill="#1B2844"/>
<path d="M519.627 130.272L572.067 108.82C572.543 108.581 572.543 108.104 572.543 107.866C572.305 107.389 571.828 107.389 571.59 107.389L519.15 128.842C518.674 129.08 518.674 129.557 518.674 129.795C518.674 130.272 519.15 130.51 519.627 130.272Z" fill="#1B2844"/>
<path d="M521.533 134.801L573.973 113.348C574.449 113.11 574.449 112.633 574.449 112.395C574.211 111.918 573.734 111.918 573.496 111.918L521.057 133.371C520.58 133.609 520.58 134.086 520.58 134.324C520.58 134.801 521.057 135.039 521.533 134.801Z" fill="#1B2844"/>
<path d="M567.299 92.8493C554.905 85.2217 542.033 87.8437 529.4 93.5644C519.151 98.3316 509.139 103.099 497.46 102.145C485.303 101.192 474.815 95.2329 464.804 88.7972C453.363 81.408 440.73 73.0653 426.428 75.9257C425.236 76.164 424.521 74.2571 425.951 74.0188C438.823 71.6352 450.741 77.3558 461.229 84.0299C472.908 91.6575 484.588 99.7618 498.89 100.238C512 100.715 522.726 93.8027 534.644 89.2739C546.085 84.745 557.765 84.745 568.491 91.1808C569.445 91.6575 568.491 93.326 567.299 92.8493Z" fill="white"/>
<path d="M556.811 100C547.992 90.4657 538.457 77.3558 525.586 73.5421C519.15 71.6352 512.237 72.1119 506.994 76.6408C502.703 80.2162 499.843 85.4601 497.459 90.4657C494.599 96.4247 492.215 102.384 489.593 108.343C487.448 112.872 485.303 117.639 481.727 121.214C474.815 128.603 464.804 127.412 457.891 120.499C449.549 111.918 447.642 90.7041 432.625 91.1808C430.003 91.1808 430.003 87.1286 432.625 87.1286C444.781 86.6519 450.264 98.3316 454.792 107.628C457.414 113.348 461.228 120.261 467.902 121.929C474.338 123.598 479.105 118.831 482.204 113.825C492.454 96.9014 497.697 62.1007 525.347 69.0132C539.649 72.5886 550.137 86.4136 559.671 96.9014C561.578 99.0467 558.718 101.907 556.811 100Z" fill="white"/>
<path d="M146.83 340.268H383.046C391.388 340.268 398.062 333.594 398.062 325.251V114.779C398.062 106.436 391.388 99.7618 383.046 99.7618H146.83C138.487 99.7618 131.813 106.436 131.813 114.779V325.49C132.051 333.594 138.725 340.268 146.83 340.268Z" fill="white"/>
<path d="M146.83 341.698H383.046C392.104 341.698 399.493 334.309 399.493 325.251V114.779C399.493 105.721 392.104 98.3316 383.046 98.3316H146.83C137.772 98.3316 130.383 105.721 130.383 114.779V325.49C130.383 334.309 137.772 341.698 146.83 341.698ZM383.046 101.192C390.435 101.192 396.394 107.151 396.394 114.54V325.251C396.394 332.641 390.435 338.6 383.046 338.6H146.83C139.441 338.6 133.482 332.641 133.482 325.251V114.779C133.482 107.389 139.441 101.43 146.83 101.43H383.046V101.192Z" fill="#93C9FE"/>
<path d="M132.051 136.946H397.824V114.779C397.824 106.436 391.15 99.7618 382.807 99.7618H146.591C138.249 99.7618 131.575 106.436 131.575 114.779V136.946H132.051Z" fill="#93C9FE"/>
<path d="M302.48 338.6H383.285C390.436 338.6 396.395 332.641 396.395 325.49V136.946H302.48V338.6Z" fill="#0078E8"/>
<path d="M302.479 269.952H374.703C378.993 269.952 382.569 266.376 382.569 262.086C382.569 257.795 378.993 254.22 374.703 254.22H302.479V269.952Z" fill="#93C9FE"/>
<path d="M344.669 193.914H374.703C375.656 193.914 376.371 192.723 376.371 191.054C376.371 189.624 375.656 188.194 374.703 188.194H344.669C343.716 188.194 343.001 189.386 343.001 191.054C343.001 192.723 343.716 193.914 344.669 193.914Z" fill="#93C9FE"/>
<path d="M325.601 208.216H373.511C374.941 208.216 376.372 207.024 376.372 205.356C376.372 203.926 375.18 202.495 373.511 202.495H325.601C324.171 202.495 322.74 203.687 322.74 205.356C322.979 207.024 324.171 208.216 325.601 208.216Z" fill="#93C9FE"/>
<path d="M335.374 222.279H374.226C375.418 222.279 376.372 221.088 376.372 219.419C376.372 217.989 375.418 216.559 374.226 216.559H335.374C334.182 216.559 333.228 217.751 333.228 219.419C333.228 221.088 334.182 222.279 335.374 222.279Z" fill="#93C9FE"/>
<path d="M325.601 236.581H373.511C374.941 236.581 376.372 235.389 376.372 233.721C376.372 232.291 375.18 230.86 373.511 230.86H325.601C324.171 230.86 322.74 232.052 322.74 233.721C322.979 235.151 324.171 236.581 325.601 236.581Z" fill="#93C9FE"/>
<path d="M354.919 250.644H375.18C375.895 250.644 376.372 249.453 376.372 247.784C376.372 246.354 375.895 244.924 375.18 244.924H354.919C354.204 244.924 353.727 246.116 353.727 247.784C353.727 249.453 354.442 250.644 354.919 250.644Z" fill="#93C9FE"/>
<path d="M325.601 264.708H373.511C374.941 264.708 376.372 263.516 376.372 261.847C376.372 260.417 375.18 258.987 373.511 258.987H325.601C324.171 258.987 322.74 260.179 322.74 261.847C322.979 263.516 324.171 264.708 325.601 264.708Z" fill="#93C9FE"/>
<path d="M333.228 279.009H373.988C375.18 279.009 376.372 277.818 376.372 276.149C376.372 274.719 375.418 273.289 373.988 273.289H333.228C332.036 273.289 330.845 274.481 330.845 276.149C331.083 277.818 332.036 279.009 333.228 279.009Z" fill="#93C9FE"/>
<path d="M325.601 293.073H373.511C374.941 293.073 376.372 291.881 376.372 290.212C376.372 288.782 375.18 287.352 373.511 287.352H325.601C324.171 287.352 322.74 288.544 322.74 290.212C322.979 291.881 324.171 293.073 325.601 293.073Z" fill="#93C9FE"/>
<path d="M146.83 338.6H302.48V282.823H133.482V325.251C133.482 332.641 139.441 338.6 146.83 338.6Z" fill="#E8F5FC"/>
<path d="M244.082 171.032H268.872V174.846H244.082V171.032Z" fill="#0078E8"/>
<path d="M248.611 178.659H278.406V182.473H248.611V178.659Z" fill="#0078E8"/>
<path d="M233.356 186.287H271.732V190.101H233.356V186.287Z" fill="#0078E8"/>
<path d="M224.298 193.676H278.406V197.49H224.298V193.676Z" fill="#0078E8"/>
<path d="M213.096 201.304H271.732V205.117H213.096V201.304Z" fill="#0078E8"/>
<path d="M211.903 209.408H235.024V213.222H211.903V209.408Z" fill="#0078E8"/>
<path d="M214.525 225.14H223.583V228.954H214.525V225.14Z" fill="#0078E8"/>
<path d="M196.887 232.529H214.526V236.343H196.887V232.529Z" fill="#0078E8"/>
<path d="M196.887 240.156H214.526V243.97H196.887V240.156Z" fill="#0078E8"/>
<path d="M206.897 247.069H224.536V250.883H206.897V247.069Z" fill="#0078E8"/>
<path d="M179.01 254.22H214.526V258.034H179.01V254.22Z" fill="#0078E8"/>
<path d="M193.55 262.324H214.526V266.138H193.55V262.324Z" fill="#0078E8"/>
<path d="M218.578 171.032H239.554V174.846H218.578V171.032Z" fill="#333333"/>
<path d="M220.484 186.287H229.542V190.101H220.484V186.287Z" fill="#333333"/>
<path d="M211.189 193.676H220.246V197.49H211.189V193.676Z" fill="#333333"/>
<path d="M185.445 201.304H209.043V205.117H185.445V201.304Z" fill="#333333"/>
<path d="M184.253 209.408H207.851V213.222H184.253V209.408Z" fill="#333333"/>
<path d="M227.397 225.14H250.995V228.954H227.397V225.14Z" fill="#333333"/>
<path d="M187.114 225.14H210.712V228.954H187.114V225.14Z" fill="#333333"/>
<path d="M159.225 225.14H182.823V228.954H159.225V225.14Z" fill="#333333"/>
<path d="M168.998 232.529H192.596V236.343H168.998V232.529Z" fill="#333333"/>
<path d="M180.916 240.156H192.596V243.97H180.916V240.156Z" fill="#333333"/>
<path d="M228.35 247.069H240.03V250.883H228.35V247.069Z" fill="#333333"/>
<path d="M191.165 247.069H202.845V250.883H191.165V247.069Z" fill="#333333"/>
<path d="M167.092 254.22H175.196V258.034H167.092V254.22Z" fill="#333333"/>
<path d="M181.394 262.324H189.498V266.138H181.394V262.324Z" fill="#333333"/>
<path d="M206.659 178.659H244.558V182.473H206.659V178.659Z" fill="#333333"/>
<path d="M178.294 217.274H255.523V221.088H178.294V217.274Z" fill="#0078E8"/>
<path d="M191.404 171.032H215.002V174.846H191.404V171.032Z" fill="#93C9FE"/>
<path d="M202.131 186.287H216.91V190.101H202.131V186.287Z" fill="#93C9FE"/>
<path d="M169.714 201.304H182.109V205.117H169.714V201.304Z" fill="#93C9FE"/>
<path d="M156.604 201.304H165.662V205.117H156.604V201.304Z" fill="#93C9FE"/>
<path d="M163.516 209.408H180.916V213.222H163.516V209.408Z" fill="#93C9FE"/>
<path d="M147.069 217.274H174.481V221.088H147.069V217.274Z" fill="#93C9FE"/>
<path d="M147.069 225.14H155.173V228.954H147.069V225.14Z" fill="#93C9FE"/>
<path d="M157.319 232.529H165.423V236.343H157.319V232.529Z" fill="#93C9FE"/>
<path d="M157.319 240.156H177.341V243.97H157.319V240.156Z" fill="#93C9FE"/>
<path d="M167.807 247.069H187.829V250.883H167.807V247.069Z" fill="#93C9FE"/>
<path d="M143.493 254.22H163.516V258.034H143.493V254.22Z" fill="#93C9FE"/>
<path d="M158.033 262.324H178.056V266.138H158.033V262.324Z" fill="#93C9FE"/>
<path d="M178.056 193.676H207.851V197.49H178.056V193.676Z" fill="#93C9FE"/>
<path d="M290.562 171.032H294.375V174.846H290.562V171.032Z" fill="#E8F5FC"/>
<path d="M290.562 177.944H294.375V181.758H290.562V177.944Z" fill="#E8F5FC"/>
<path d="M290.562 185.572H294.375V189.386H290.562V185.572Z" fill="#E8F5FC"/>
<path d="M290.562 193.438H294.375V197.251H290.562V193.438Z" fill="#E8F5FC"/>
<path d="M290.562 200.589H294.375V204.402H290.562V200.589Z" fill="#E8F5FC"/>
<path d="M290.562 208.216H294.375V212.03H290.562V208.216Z" fill="#E8F5FC"/>
<path d="M290.562 215.605H294.375V219.419H290.562V215.605Z" fill="#E8F5FC"/>
<path d="M290.562 222.756H294.375V226.57H290.562V222.756Z" fill="#E8F5FC"/>
<path d="M290.562 230.384H294.375V234.197H290.562V230.384Z" fill="#E8F5FC"/>
<path d="M290.562 238.011H294.375V241.825H290.562V238.011Z" fill="#E8F5FC"/>
<path d="M290.562 244.924H294.375V248.737H290.562V244.924Z" fill="#E8F5FC"/>
<path d="M290.562 252.551H294.375V256.365H290.562V252.551Z" fill="#E8F5FC"/>
<path d="M290.562 259.94H294.375V263.754H290.562V259.94Z" fill="#E8F5FC"/>
<path d="M233.117 305.467H284.126C286.033 305.467 287.702 303.799 287.702 301.892C287.702 299.985 286.033 298.317 284.126 298.317H233.117C231.21 298.317 229.542 299.985 229.542 301.892C229.542 304.037 231.21 305.467 233.117 305.467Z" fill="#0078E8"/>
<path d="M193.073 320.484H284.126C286.033 320.484 287.702 318.816 287.702 316.909C287.702 315.002 286.033 313.333 284.126 313.333H193.073C191.166 313.333 189.497 315.002 189.497 316.909C189.497 318.816 191.166 320.484 193.073 320.484Z" fill="#0078E8"/>
<path d="M349.436 122.644C347.199 122.644 345.384 120.83 345.384 118.592C345.384 116.354 347.199 114.54 349.436 114.54C351.674 114.54 353.489 116.354 353.489 118.592C353.489 120.83 351.674 122.644 349.436 122.644Z" fill="#333333"/>
<path d="M361.116 118.116C361.116 120.499 363.023 122.168 365.168 122.168C367.552 122.168 369.22 120.261 369.22 118.116C369.22 115.732 367.313 114.063 365.168 114.063C363.023 114.063 361.116 115.97 361.116 118.116Z" fill="#FDCF8C"/>
<path d="M329.415 118.592C329.415 120.976 331.322 122.644 333.467 122.644C335.85 122.644 337.519 120.738 337.519 118.592C337.519 116.447 335.612 114.54 333.467 114.54C331.322 114.302 329.415 116.209 329.415 118.592Z" fill="#0078E8"/>
<path d="M100.589 500.924H272.685C281.266 500.924 288.179 494.011 288.179 485.43V387.94C288.179 379.359 281.266 372.447 272.685 372.447H100.589C92.0076 372.447 85.0951 379.359 85.0951 387.94V485.43C85.0951 493.773 92.0076 500.924 100.589 500.924Z" fill="#0078E8"/>
<path d="M248.373 438.95C249.326 438.95 250.041 438.473 250.518 437.52C250.995 436.328 250.518 434.898 249.326 434.182L206.66 413.922C205.468 413.445 204.038 413.922 203.323 415.114C202.846 416.305 203.323 417.736 204.514 418.451L247.181 438.711C247.658 438.95 247.896 438.95 248.373 438.95Z" fill="white"/>
<path d="M205.706 459.21C205.944 459.21 206.421 459.21 206.66 458.972L249.326 438.711C250.518 438.235 250.995 436.804 250.518 435.374C250.041 434.182 248.611 433.706 247.181 434.182L204.514 454.443C203.323 454.92 202.846 456.35 203.323 457.78C204.038 458.734 204.753 459.21 205.706 459.21Z" fill="white"/>
<path d="M125.14 438.95C125.379 438.95 125.855 438.95 126.094 438.711L168.76 418.451C169.952 417.974 170.429 416.544 169.952 415.114C169.476 413.922 168.045 413.445 166.615 413.922L123.949 434.182C122.757 434.659 122.28 436.089 122.757 437.52C123.472 438.473 124.425 438.95 125.14 438.95Z" fill="white"/>
<path d="M167.807 459.21C168.76 459.21 169.475 458.734 169.952 457.78C170.429 456.588 169.952 455.158 168.76 454.443L126.332 434.421C125.14 433.944 123.71 434.421 122.995 435.613C122.518 436.804 122.995 438.235 124.187 438.95L166.853 459.21C167.092 459.21 167.568 459.21 167.807 459.21Z" fill="white"/>
<path d="M202.37 470.652C202.846 470.652 203.085 470.652 203.323 470.413C204.515 469.937 204.992 468.268 204.515 467.076L173.051 403.434C172.575 402.242 170.906 401.765 169.714 402.242C168.522 402.719 168.046 404.387 168.522 405.579L200.224 469.46C200.701 470.175 201.655 470.652 202.37 470.652Z" fill="white"/>
<path d="M246.942 400.812H268.872C270.302 400.812 271.255 399.62 271.255 398.428C271.255 397.236 270.063 396.045 268.872 396.045H246.942C245.512 396.045 244.559 397.236 244.559 398.428C244.559 399.62 245.512 400.812 246.942 400.812Z" fill="white"/>
<path d="M232.641 410.823H268.872C270.302 410.823 271.255 409.631 271.255 408.439C271.255 407.248 270.063 406.056 268.872 406.056H232.641C231.211 406.056 230.257 407.248 230.257 408.439C230.257 409.631 231.211 410.823 232.641 410.823Z" fill="white"/>
<path d="M116.559 476.849H138.489C139.919 476.849 140.872 475.657 140.872 474.466C140.872 473.274 139.68 472.082 138.489 472.082H116.559C115.129 472.082 114.176 473.274 114.176 474.466C114.176 475.657 115.129 476.849 116.559 476.849Z" fill="white"/>
<path d="M102.258 486.86H138.488C139.919 486.86 140.872 485.669 140.872 484.477C140.872 483.285 139.68 482.093 138.488 482.093H102.258C100.827 482.093 99.8739 483.285 99.8739 484.477C99.8739 485.669 101.066 486.86 102.258 486.86Z" fill="white"/>
<path d="M270.064 455.397C261.483 463.262 252.902 471.128 244.321 478.994C243.606 479.471 242.891 478.756 243.367 478.041C251.948 470.175 260.529 462.309 269.11 454.443C269.826 453.728 270.779 454.681 270.064 455.397Z" fill="#2F383C"/>
<path d="M268.872 464.693C265.773 467.791 262.675 470.89 259.576 473.989C259.099 474.466 258.146 473.75 258.623 473.035C261.721 469.937 264.82 466.838 267.919 463.739C268.634 463.263 269.349 464.216 268.872 464.693Z" fill="#2F383C"/>
<path d="M143.971 390.801C131.099 399.143 119.42 408.916 108.932 420.358C108.455 421.073 107.501 420.119 107.978 419.404C118.466 407.963 130.146 397.952 143.256 389.609C144.209 389.132 144.686 390.324 143.971 390.801Z" fill="#2F383C"/>
<path d="M117.989 398.667C112.983 402.242 107.739 405.817 102.733 409.631C102.018 410.108 101.542 408.916 102.018 408.439C107.024 404.864 112.268 401.289 117.273 397.475C117.989 396.998 118.704 398.19 117.989 398.667Z" fill="#2F383C"/>
<path d="M481.489 312.857H653.586C662.167 312.857 669.079 305.944 669.079 297.363V199.873C669.079 191.292 662.167 184.38 653.586 184.38H481.489C472.908 184.38 465.995 191.292 465.995 199.873V297.363C465.995 305.944 472.908 312.857 481.489 312.857Z" fill="#0078E8"/>
<path d="M629.273 251.121C630.227 251.121 630.942 250.644 631.418 249.691C631.895 248.499 631.418 247.069 630.227 246.354L587.56 226.093C586.368 225.616 584.938 226.093 584.223 227.285C583.746 228.477 584.223 229.907 585.415 230.622L628.081 250.883C628.558 251.121 628.796 251.121 629.273 251.121Z" fill="white"/>
<path d="M586.606 271.382C586.845 271.382 587.321 271.382 587.56 271.143L630.226 250.883C631.418 250.406 631.895 248.976 631.418 247.546C630.941 246.354 629.511 245.877 628.081 246.354L585.414 266.615C584.223 267.091 583.746 268.521 584.223 269.952C584.699 270.905 585.653 271.382 586.606 271.382Z" fill="white"/>
<path d="M506.041 251.121C506.279 251.121 506.756 251.121 506.994 250.883L549.661 230.622C550.853 230.145 551.33 228.715 550.853 227.285C550.376 226.093 548.946 225.616 547.516 226.093L504.849 246.354C503.657 246.831 503.181 248.261 503.657 249.691C504.373 250.644 505.088 251.121 506.041 251.121Z" fill="white"/>
<path d="M548.708 271.382C549.661 271.382 550.376 270.905 550.853 269.952C551.33 268.76 550.853 267.33 549.661 266.615L506.995 246.354C505.803 245.877 504.373 246.354 503.658 247.546C503.181 248.738 503.658 250.168 504.849 250.883L547.516 271.143C547.993 271.382 548.231 271.382 548.708 271.382Z" fill="white"/>
<path d="M583.27 282.823C583.747 282.823 583.985 282.823 584.224 282.585C585.416 282.108 585.892 280.439 585.416 279.248L553.952 215.605C553.475 214.413 551.807 213.937 550.615 214.413C549.423 214.89 548.946 216.559 549.423 217.751L580.887 281.393C581.602 282.346 582.555 282.823 583.27 282.823Z" fill="white"/>
<path d="M627.604 212.983H649.533C650.963 212.983 651.917 211.792 651.917 210.6C651.917 209.17 650.725 208.216 649.533 208.216H627.604C626.174 208.216 625.22 209.408 625.22 210.6C625.22 211.792 626.412 212.983 627.604 212.983Z" fill="white"/>
<path d="M613.541 222.995H649.772C651.202 222.995 652.155 221.803 652.155 220.611C652.155 219.181 650.964 218.227 649.772 218.227H613.541C612.111 218.227 611.157 219.419 611.157 220.611C611.157 221.803 612.111 222.995 613.541 222.995Z" fill="white"/>
<path d="M497.46 289.021H519.389C520.819 289.021 521.772 287.829 521.772 286.637C521.772 285.207 520.581 284.253 519.389 284.253H497.46C496.029 284.253 495.076 285.445 495.076 286.637C495.076 287.829 496.029 289.021 497.46 289.021Z" fill="white"/>
<path d="M483.158 299.032H519.389C520.819 299.032 521.773 297.84 521.773 296.648C521.773 295.218 520.581 294.264 519.389 294.264H483.158C481.728 294.264 480.775 295.456 480.775 296.648C480.775 298.078 481.966 299.032 483.158 299.032Z" fill="white"/>
<path d="M650.964 267.568C642.383 275.434 633.802 283.3 625.221 291.166C624.506 291.643 623.791 290.927 624.268 290.212C632.849 282.346 641.43 274.481 650.011 266.615C650.726 265.9 651.679 266.853 650.964 267.568Z" fill="#2F383C"/>
<path d="M649.772 276.864C646.674 279.963 643.575 283.062 640.476 286.16C639.999 286.637 639.046 285.922 639.523 285.207C642.621 282.108 645.72 279.009 648.819 275.911C649.534 275.434 650.249 276.387 649.772 276.864Z" fill="#2F383C"/>
<path d="M524.872 202.734C512 211.076 500.32 220.849 489.833 232.291C489.356 233.006 488.402 232.052 488.879 231.337C499.367 219.896 511.047 209.885 524.156 201.542C524.872 201.304 525.587 202.495 524.872 202.734Z" fill="#2F383C"/>
<path d="M498.889 210.838C493.884 214.413 488.64 217.989 483.634 221.803C482.919 222.279 482.442 221.088 482.919 220.611C487.925 217.035 493.169 213.46 498.174 209.646C498.889 209.17 499.604 210.361 498.889 210.838Z" fill="#2F383C"/>
<path d="M550.614 470.413C555.858 469.937 560.864 466.361 563.009 461.356C563.963 459.21 564.439 457.065 564.678 454.92C565.631 447.531 565.393 439.903 563.486 432.752C554.428 437.758 548.231 447.054 546.086 457.542C545.609 459.687 545.371 462.071 545.847 464.454C546.324 466.6 548.708 469.222 550.614 470.413Z" fill="#46AAAB"/>
<path d="M550.614 471.367H550.853C556.573 470.89 561.579 467.315 563.962 461.832C564.916 459.449 565.393 457.065 565.631 455.158C566.584 447.769 566.346 439.903 564.439 432.752L564.201 431.561L563.247 432.037C554.19 437.043 547.754 446.101 545.37 457.304C544.894 459.21 544.417 461.832 545.132 464.454C545.609 467.076 548.231 469.937 550.614 471.367ZM563.247 434.182C564.677 440.857 565.154 448.007 563.962 454.92C563.724 456.827 563.247 458.972 562.294 461.117C560.387 465.646 555.62 468.983 550.853 469.46C549.184 468.268 547.039 466.123 546.8 464.216C546.324 461.832 546.8 459.449 547.039 457.78C549.422 447.292 554.905 438.95 563.247 434.182Z" fill="#1B2844"/>
<path d="M556.573 490.436C560.625 489.244 563.962 485.907 567.776 483.762C583.508 474.942 600.908 490.912 603.053 506.883C604.483 517.609 601.385 528.335 596.618 538.108C593.519 544.544 589.467 550.741 583.984 555.508C578.502 560.037 571.351 562.897 564.439 562.182C560.387 561.706 556.335 560.037 552.282 560.514C549.66 560.752 547.277 562.182 544.655 562.421C540.603 562.897 536.789 560.991 533.452 558.607C516.29 546.927 507.47 523.568 512.238 502.83C513.43 497.348 515.813 491.866 519.627 487.814C523.441 483.762 529.161 481.378 534.644 482.57C542.033 484.238 547.754 491.866 555.143 490.912C555.619 490.674 556.096 490.674 556.573 490.436Z" fill="#E9415A"/>
<path d="M560.148 558.369C560.387 558.369 560.625 558.13 560.863 557.892C561.102 557.415 561.102 556.938 560.625 556.7C556.573 553.84 551.09 553.601 547.038 556.223C546.562 556.462 546.562 556.938 546.8 557.415C547.038 557.892 547.515 557.892 547.992 557.653C551.567 555.508 556.334 555.747 559.671 558.13C559.671 558.369 559.91 558.369 560.148 558.369Z" fill="#1B2844"/>
<path d="M553.475 496.871C557.289 496.871 561.102 495.441 563.724 492.819C563.963 492.581 564.201 491.866 563.724 491.628C563.486 491.389 562.771 491.151 562.533 491.628C558.48 495.441 552.045 496.395 547.039 493.534C546.562 493.296 546.086 493.534 545.847 493.773C545.609 494.249 545.847 494.726 546.086 494.965C548.469 496.156 550.853 496.871 553.475 496.871Z" fill="#1B2844"/>
<path d="M542.272 491.627C542.51 491.627 542.749 491.627 542.987 491.389C543.225 490.912 543.225 490.436 542.987 490.197L539.412 487.099C538.935 486.86 538.458 486.86 538.22 487.099C537.981 487.575 537.981 488.052 538.22 488.29L541.795 491.389C541.795 491.627 542.034 491.627 542.272 491.627Z" fill="#1B2844"/>
<path d="M594.949 513.557C594.949 516.894 593.519 520.231 592.327 523.091C591.85 524.045 591.612 524.998 590.659 525.713C589.705 526.428 588.275 526.667 587.083 526.428C583.508 525.951 580.171 523.33 578.264 520.231C576.357 516.894 575.642 513.08 575.88 509.266C575.88 506.883 576.357 504.261 578.025 502.354C582.554 496.871 592.327 504.261 594.234 509.505C594.711 510.696 594.949 512.127 594.949 513.557Z" fill="#FFF4E6"/>
<path d="M583.27 539.538C582.793 540.253 582.317 541.207 581.602 541.683C580.648 542.16 579.695 541.683 578.98 540.968C578.265 540.253 577.788 539.3 577.549 538.346C576.596 535.724 575.166 530.957 578.98 529.765C581.363 529.05 583.747 531.195 584.462 533.341C585.177 535.486 583.985 537.631 583.27 539.538Z" fill="#FFF4E6"/>
<path d="M554.666 496.633C555.143 496.633 555.381 496.395 555.62 495.918C556.097 492.581 555.62 488.767 554.19 484.238C549.184 468.03 536.789 457.065 527.255 450.629C526.778 450.391 526.301 450.391 526.063 450.868C525.825 451.344 525.825 451.821 526.301 452.06C535.597 458.257 547.754 468.983 552.521 484.715C553.713 488.767 554.19 492.343 553.951 495.68C553.713 496.156 554.19 496.633 554.666 496.633Z" fill="#1B2844"/>
<path d="M548.469 473.274C548.708 473.274 548.946 473.274 549.184 473.035C552.76 468.506 555.382 463.263 556.812 457.78C557.05 457.303 556.573 456.827 556.097 456.588C555.62 456.35 555.143 456.827 554.905 457.303C553.475 462.547 550.853 467.791 547.516 472.082C547.277 472.559 547.277 473.035 547.754 473.274C547.992 473.274 548.231 473.274 548.469 473.274Z" fill="#1B2844"/>
<path d="M692.915 121.453C709.123 121.453 722.233 108.343 722.233 92.1342C722.233 75.6873 707.217 60.1938 691.246 60.1938C675.276 60.1938 660.259 75.9257 660.259 92.3726C660.259 108.819 677.421 121.453 692.915 121.453ZM691.246 62.1007C706.263 62.1007 720.326 76.6408 720.326 92.1342C720.326 107.151 707.932 119.546 692.915 119.546C678.375 119.546 662.166 107.866 662.166 92.3726C662.166 76.6407 676.23 62.1007 691.246 62.1007Z" fill="#333333"/>
<path d="M685.764 149.579H696.967C698.874 149.579 700.543 148.149 700.781 146.242L701.735 139.568C701.735 138.853 702.45 138.138 703.165 138.138C703.88 137.9 704.595 137.661 705.31 137.661C706.025 137.423 706.74 137.661 707.217 138.376L711.031 143.62C712.222 145.05 714.368 145.527 715.798 144.574L725.332 139.091C727.001 138.138 727.716 136.231 727.001 134.324L724.379 128.127C724.14 127.412 724.379 126.697 724.856 125.981C725.332 125.505 725.809 125.028 726.286 124.551C726.762 124.075 727.716 123.836 728.431 124.075L734.628 126.697C736.297 127.412 738.442 126.697 739.396 125.028L744.878 115.494C745.831 113.825 745.355 111.68 743.924 110.726L738.68 106.674C737.965 106.198 737.727 105.482 737.965 104.767C738.204 104.052 738.442 103.337 738.442 102.622C738.68 101.907 739.157 101.192 739.872 101.192L746.546 100.238C748.453 100 749.883 98.3316 749.883 96.4247V85.2217C749.883 83.3149 748.453 81.6463 746.546 81.408L739.872 80.4545C739.157 80.4545 738.442 79.7394 738.442 79.0244C738.204 78.3093 737.965 77.5942 737.965 76.8791C737.727 76.164 737.965 75.4489 738.68 74.9722L743.924 70.9201C745.355 69.7283 745.831 67.583 744.878 66.1529L739.396 56.6184C738.442 54.9499 736.535 54.2348 734.628 54.9499L728.431 57.5719C727.716 57.8102 727.001 57.5719 726.286 57.0951C725.809 56.6184 725.332 56.1417 724.856 55.665C724.379 55.1882 724.14 54.2348 724.379 53.5197L727.001 47.084C727.716 45.4154 727.001 43.2702 725.332 42.3167L715.798 36.8344C714.129 35.881 711.984 36.3577 711.031 37.7879L706.978 43.0318C706.502 43.7469 705.787 43.9853 705.072 43.7469C704.356 43.5085 703.641 43.2702 702.926 43.2702C702.211 43.0318 701.496 42.5551 701.496 41.84L700.543 35.1659C700.304 33.259 698.636 31.8289 696.729 31.8289H685.526C683.619 31.8289 681.951 33.259 681.712 35.1659L680.759 41.84C680.759 42.5551 680.044 43.2702 679.329 43.2702C678.613 43.5086 677.898 43.7469 677.183 43.7469C676.468 43.9853 675.753 43.7469 675.276 43.0318L671.224 37.7879C670.032 36.3577 667.887 35.881 666.457 36.8344L656.923 42.3167C655.254 43.2702 654.539 45.1771 655.254 47.084L657.876 53.2814C658.114 53.9964 657.876 54.7115 657.399 55.4266C656.923 55.9033 656.446 56.38 655.969 56.8568C655.492 57.3335 654.539 57.5719 653.824 57.3335L647.627 54.7115C645.958 53.9964 643.813 54.7115 642.859 56.3801L637.377 65.9145C636.424 67.583 636.9 69.7283 638.33 70.6817L643.574 74.7339C644.289 75.2106 644.528 75.9257 644.289 76.6408C644.051 77.3558 643.813 78.0709 643.813 78.786C643.574 79.5011 643.098 80.2162 642.383 80.2162L635.708 81.1696C633.802 81.408 632.371 83.0765 632.371 84.9834V96.1864C632.371 98.0932 633.802 99.7618 635.708 100L642.383 100.954C643.098 100.954 643.813 101.669 643.813 102.384C644.051 103.099 644.289 103.814 644.289 104.529C644.528 105.244 644.289 105.959 643.574 106.436L638.33 110.488C636.9 111.68 636.424 113.825 637.377 115.255L642.859 124.79C643.813 126.458 645.72 127.173 647.627 126.458L653.824 123.836C654.539 123.598 655.254 123.836 655.969 124.313C656.446 124.79 656.923 125.266 657.399 125.743C657.876 126.22 658.114 127.173 657.876 127.888L655.254 134.086C654.539 135.754 655.254 137.9 656.923 138.853L666.457 144.335C668.126 145.289 670.271 144.812 671.224 143.382L675.276 138.138C675.753 137.423 676.468 137.184 677.183 137.423C677.898 137.661 678.613 137.9 679.329 137.9C680.044 138.138 680.759 138.615 680.759 139.33L681.712 146.004C682.189 148.149 683.857 149.579 685.764 149.579ZM705.548 135.516C705.072 135.516 704.833 135.516 704.356 135.754C703.641 135.993 702.926 136.231 702.45 136.231C700.781 136.708 699.828 137.9 699.589 139.33L698.636 146.004C698.636 146.957 697.682 147.672 696.729 147.672H685.526C684.573 147.672 683.857 146.957 683.619 146.004L682.666 139.33C682.427 137.661 681.235 136.469 679.805 136.231C679.09 135.993 678.375 135.993 677.898 135.754C676.468 135.278 674.8 135.754 673.846 136.946L669.794 142.19C669.317 142.905 668.126 143.144 667.41 142.667L657.876 137.184C657.161 136.708 656.684 135.754 657.161 134.801L659.783 128.603C660.498 127.173 660.021 125.505 658.83 124.313C658.353 123.836 657.876 123.36 657.399 122.883C656.208 121.691 654.539 121.453 653.109 121.929L646.911 124.551C645.958 124.79 645.005 124.551 644.528 123.836L639.046 114.302C638.569 113.587 638.807 112.395 639.522 111.918L644.766 107.866C645.958 106.913 646.435 105.244 645.958 103.814C645.72 103.099 645.481 102.384 645.481 101.907C645.005 100.238 643.813 99.285 642.383 99.0467L635.708 98.0933C634.755 98.0933 634.04 97.1398 634.04 96.1864V84.9834C634.04 84.0299 634.755 83.3149 635.708 83.0765L642.383 82.1231C644.051 81.8847 645.243 80.6929 645.481 79.2627C645.72 78.5476 645.72 77.8326 645.958 77.3558C646.435 75.9257 645.958 74.2571 644.766 73.3037L639.522 69.2515C638.807 68.7748 638.569 67.583 639.046 66.8679L644.528 57.3335C645.005 56.6184 645.958 56.1417 646.911 56.6184L653.109 59.2404C654.539 59.9555 656.208 59.4787 657.399 58.2869C657.876 57.8102 658.353 57.3335 658.83 56.8568C660.021 55.665 660.26 53.9964 659.783 52.5663L657.161 46.3689C656.923 45.4154 657.161 44.462 657.876 43.9853L667.41 38.503C668.126 38.0262 669.317 38.2646 669.794 38.9797L673.846 44.2236C674.8 45.4154 676.468 45.8922 677.898 45.4154C678.613 45.1771 679.329 44.9387 679.805 44.9387C681.474 44.462 682.427 43.2702 682.666 41.84L683.619 35.1659C683.619 34.2125 684.573 33.4974 685.526 33.4974H696.729C697.682 33.4974 698.397 34.2125 698.636 35.1659L699.589 41.84C699.828 43.5085 701.019 44.7004 702.45 44.9387C703.165 45.1771 703.88 45.1771 704.356 45.4154C705.787 45.8922 707.455 45.4154 708.409 44.2236L712.461 38.9797C712.937 38.2646 714.129 38.0262 714.844 38.503L724.379 43.9853C725.094 44.462 725.571 45.4154 725.094 46.3689L722.472 52.5663C721.757 53.9964 722.234 55.665 723.425 56.8568C723.902 57.3335 724.379 57.8102 724.856 58.2869C726.047 59.4787 727.716 59.7171 729.146 59.2404L735.343 56.6184C736.297 56.3801 737.25 56.6184 737.727 57.3335L743.209 66.8679C743.686 67.583 743.448 68.7748 742.733 69.2515L737.489 73.3037C736.297 74.2571 735.82 75.9257 736.297 77.3558C736.535 78.0709 736.774 78.786 736.774 79.2627C737.25 80.9312 738.442 81.8847 739.872 82.1231L746.546 83.0765C747.5 83.0765 748.215 84.0299 748.215 84.9834V96.1864C748.215 97.1398 747.5 97.8549 746.546 98.0933L739.872 99.0467C738.204 99.285 737.012 100.477 736.774 101.907C736.535 102.622 736.535 103.337 736.297 103.814C735.82 105.244 736.297 106.913 737.489 107.866L742.733 111.918C743.448 112.395 743.686 113.587 743.209 114.302L737.727 123.836C737.25 124.551 736.297 125.028 735.343 124.551L729.384 122.168C727.954 121.453 726.286 121.929 725.094 123.121C724.617 123.598 724.14 124.075 723.664 124.551C722.472 125.743 722.234 127.412 722.71 128.842L725.332 135.039C725.571 135.993 725.332 136.946 724.617 137.423L715.083 142.905C714.368 143.382 713.176 143.144 712.699 142.428L708.647 137.184C707.694 135.993 706.74 135.516 705.548 135.516Z" fill="#333333"/>
<path d="M661.452 70.4434C658.353 74.4955 656.446 79.0244 655.492 84.0299C655.254 84.9834 653.824 84.5067 654.062 83.5532C655.016 78.5476 657.161 73.7804 660.26 69.7283C660.736 69.0132 661.928 69.7283 661.452 70.4434Z" fill="#333333"/>
<path d="M655.016 87.6054C655.016 88.5588 654.778 89.5123 654.778 90.4657C654.778 90.7041 654.778 90.9424 654.539 90.9424C654.301 91.1808 654.301 91.1808 654.063 91.1808C653.586 91.1808 653.348 90.9424 653.348 90.4657C653.348 89.5123 653.586 88.5588 653.586 87.6054C653.586 87.367 653.586 87.1286 653.824 87.1286C654.063 86.8903 654.063 86.8903 654.301 86.8903C654.539 86.8903 655.016 87.1286 655.016 87.6054Z" fill="#333333"/>
<path d="M721.757 71.6352C724.379 77.1175 726.048 83.0765 726.286 89.2739C726.286 90.2273 724.856 90.2273 724.856 89.2739C724.618 83.3149 722.949 77.5942 720.566 72.3502C720.089 71.6352 721.281 70.9201 721.757 71.6352Z" fill="#333333"/>
<path d="M726.286 94.0411C726.524 95.2329 726.524 96.6631 726.047 97.8549C725.809 98.3316 725.57 98.57 725.094 98.3316C724.855 98.3316 724.379 97.8549 724.617 97.3781C724.617 97.1398 724.855 96.9014 724.855 96.6631V96.4247V96.1863C724.855 95.948 724.855 95.7096 724.855 95.4713C724.855 95.2329 724.855 95.2329 724.855 94.9945V94.7562C724.855 94.2795 724.855 94.0411 725.332 93.8027C725.809 93.326 726.286 93.5644 726.286 94.0411Z" fill="#333333"/>
<path d="M711.508 126.697C708.886 127.65 706.264 128.842 703.642 129.795C703.165 130.034 702.927 129.557 702.688 129.319C702.688 128.842 702.927 128.603 703.165 128.365C705.787 127.412 708.409 126.22 711.031 125.266C711.508 125.028 711.746 125.505 711.985 125.743C712.223 126.22 711.746 126.458 711.508 126.697Z" fill="#333333"/>
<path d="M700.305 130.51C699.59 130.749 698.875 130.749 698.16 130.987C697.921 130.987 697.683 130.987 697.683 130.987C697.445 130.987 697.445 130.749 697.445 130.51C697.445 130.034 697.445 129.557 697.921 129.557C698.636 129.319 699.352 129.319 700.067 129.08C700.305 129.08 700.543 129.08 700.543 129.08C700.782 129.08 700.782 129.319 700.782 129.557C701.02 130.034 700.782 130.51 700.305 130.51Z" fill="#333333"/>
<path d="M688.863 47.799C686.957 47.799 685.288 48.2758 683.619 49.2292C683.381 49.4676 682.904 49.2292 682.666 48.9908C682.428 48.7525 682.666 48.2758 682.904 48.0374C684.811 47.084 686.718 46.3689 688.863 46.3689C689.34 46.3689 689.578 46.6072 689.578 47.084C689.578 47.3223 689.102 47.799 688.863 47.799Z" fill="#333333"/>
<path d="M679.567 50.6594C679.09 50.8977 678.852 51.1361 678.375 51.3745H678.137H677.898C677.66 51.3745 677.422 51.1361 677.422 51.1361C677.422 50.8977 677.183 50.6594 677.422 50.6594C677.422 50.421 677.66 50.421 677.66 50.1827C678.137 49.9443 678.375 49.7059 678.852 49.4676H679.09H679.329C679.567 49.4676 679.805 49.7059 679.805 49.7059C679.805 49.9443 680.044 50.1827 679.805 50.1827C679.805 50.421 679.805 50.421 679.567 50.6594Z" fill="#333333"/>
<path d="M717.943 48.2758C717.705 47.5607 717.467 46.8456 717.228 46.1305C717.228 45.8922 717.228 45.6538 717.228 45.6538C717.228 45.4154 717.467 45.4154 717.705 45.4154C717.943 45.4154 718.182 45.4154 718.182 45.4154C718.42 45.4154 718.42 45.6538 718.42 45.8922C718.658 46.6072 718.897 47.3223 719.135 48.0374C719.135 48.2758 719.135 48.5141 719.135 48.5141C719.135 48.7525 718.897 48.7525 718.658 48.7525C718.42 48.7525 718.182 48.7525 718.182 48.7525C718.182 48.7525 717.943 48.5141 717.943 48.2758Z" fill="#333333"/>
<path d="M721.28 48.2758C721.042 47.799 720.803 47.5607 720.565 47.084V46.8456V46.6072C720.565 46.3689 720.803 46.1305 720.803 46.1305C721.042 46.1305 721.28 45.8921 721.28 46.1305C721.518 46.1305 721.518 46.3689 721.757 46.3689C721.995 46.8456 722.234 47.084 722.472 47.5607V47.799V48.0374C722.472 48.2758 722.234 48.5141 722.234 48.5141C721.995 48.5141 721.757 48.7525 721.757 48.5141C721.518 48.5141 721.28 48.2758 721.28 48.2758Z" fill="#333333"/>
<path d="M662.405 134.086C662.166 133.371 661.928 132.656 661.689 131.941C661.689 131.702 661.451 131.702 661.451 131.464C661.451 131.702 661.451 131.225 661.451 131.225V130.987C661.213 130.749 661.213 130.272 660.974 130.034C660.736 129.795 660.974 129.319 661.213 129.08C661.451 128.842 661.928 129.08 662.166 129.319C662.881 130.749 663.358 131.941 663.835 133.609C663.835 134.086 663.835 134.324 663.358 134.562C662.881 134.562 662.405 134.562 662.405 134.086Z" fill="#333333"/>
<path d="M665.266 132.417C665.027 132.179 665.027 131.941 664.789 131.702V131.464V131.225C664.789 131.225 664.789 130.987 665.027 130.987L665.266 130.749C665.266 130.749 665.266 130.749 665.504 130.749C665.743 130.749 665.743 130.749 665.981 130.749C665.981 130.749 665.981 130.749 666.219 130.749L666.458 130.987C666.696 131.225 666.696 131.464 666.934 131.702V131.941V132.179C666.934 132.179 666.934 132.417 666.696 132.417L666.458 132.656C666.458 132.656 666.458 132.656 666.219 132.656C665.981 132.656 665.981 132.656 665.743 132.656C665.743 132.656 665.743 132.656 665.504 132.656C665.504 132.656 665.504 132.417 665.266 132.417Z" fill="#333333"/>
<path d="M638.093 91.8959C637.616 90.9424 637.139 89.989 636.662 89.0355C636.424 88.7972 636.662 88.3204 636.901 88.0821C637.139 87.8437 637.616 88.0821 637.854 88.3204C638.331 89.2739 638.808 90.2273 639.284 91.1808C639.523 91.4191 639.284 91.8959 639.046 92.1342C638.808 92.3726 638.331 92.3726 638.093 91.8959Z" fill="#333333"/>
<path d="M737.012 114.54C737.25 115.732 737.25 116.924 736.773 117.877C736.773 118.116 736.535 118.116 736.535 118.354C736.297 118.354 736.058 118.592 736.058 118.354C735.82 118.354 735.82 118.116 735.582 118.116C735.582 117.877 735.343 117.639 735.582 117.639C735.582 117.4 735.82 117.162 735.82 116.924C735.82 116.685 735.82 116.685 735.82 116.447C735.82 116.447 735.82 116.447 735.82 116.209C735.82 115.97 735.82 115.732 735.82 115.494C735.82 115.494 735.82 115.255 735.82 115.017V114.779C735.82 114.302 735.82 114.063 736.297 113.825C736.297 114.063 736.773 114.063 737.012 114.54Z" fill="#333333"/>
<path d="M734.39 113.587C734.39 114.302 734.39 115.017 734.39 115.732C734.39 116.209 734.152 116.447 733.675 116.447C733.199 116.447 732.96 116.209 732.96 115.732C732.96 115.017 732.96 114.302 732.96 113.587C732.96 113.11 733.199 112.872 733.675 112.872C734.152 112.872 734.39 113.11 734.39 113.587Z" fill="#333333"/>
</svg>
