<svg width="39" height="35" viewBox="0 0 39 35" fill="none" xmlns="http://www.w3.org/2000/svg">
<path d="M37.375 11.6667C37.375 13.2708 35.9125 14.5833 34.125 14.5833C33.8446 14.5873 33.5651 14.5528 33.2962 14.4813L27.5112 19.6583C27.5925 19.8917 27.625 20.1542 27.625 20.4167C27.625 22.0208 26.1625 23.3333 24.375 23.3333C22.5875 23.3333 21.125 22.0208 21.125 20.4167C21.125 20.1542 21.1575 19.8917 21.2388 19.6583L17.095 15.9396C16.835 16.0125 16.5425 16.0417 16.25 16.0417C15.9575 16.0417 15.665 16.0125 15.405 15.9396L8.01125 22.5896C8.0925 22.8229 8.125 23.0708 8.125 23.3333C8.125 24.9375 6.6625 26.25 4.875 26.25C3.0875 26.25 1.625 24.9375 1.625 23.3333C1.625 21.7292 3.0875 20.4167 4.875 20.4167C5.1675 20.4167 5.44375 20.4458 5.70375 20.5188L13.1137 13.8833C13.0325 13.65 13 13.3875 13 13.125C13 11.5208 14.4625 10.2083 16.25 10.2083C18.0375 10.2083 19.5 11.5208 19.5 13.125C19.5 13.3875 19.4675 13.65 19.3862 13.8833L23.53 17.6021C23.79 17.5292 24.0825 17.5 24.375 17.5C24.6675 17.5 24.96 17.5292 25.22 17.6021L30.9888 12.4104C30.909 12.1691 30.8706 11.9183 30.875 11.6667C30.875 10.0625 32.3375 8.75 34.125 8.75C35.9125 8.75 37.375 10.0625 37.375 11.6667Z" fill="#0078E8"/>
</svg>