<svg width="100" height="100" viewBox="0 0 100 100" fill="none" xmlns="http://www.w3.org/2000/svg">
<path d="M52.6 1.39377C52.3146 0.965775 51.928 0.614851 51.4744 0.372141C51.0209 0.129431 50.5144 0.00244141 50 0.00244141C49.4856 0.00244141 48.9791 0.129431 48.5256 0.372141C48.072 0.614851 47.6854 0.965775 47.4 1.39377L28.65 29.5188C28.3369 29.9894 28.1572 30.5361 28.1302 31.1007C28.1032 31.6653 28.2298 32.2267 28.4966 32.725C28.7634 33.2234 29.1604 33.64 29.6453 33.9306C30.1302 34.2211 30.6848 34.3747 31.25 34.375H31.8625L19.225 54.5938C18.9294 55.0668 18.7657 55.6104 18.7511 56.168C18.7364 56.7256 18.8713 57.277 19.1418 57.7649C19.4122 58.2528 19.8083 58.6594 20.2889 58.9426C20.7695 59.2257 21.3172 59.375 21.875 59.375H23.0688L12.8313 79.85C12.5925 80.3264 12.4796 80.856 12.5032 81.3884C12.5268 81.9208 12.6861 82.4383 12.9661 82.8917C13.246 83.3452 13.6373 83.7195 14.1027 83.9791C14.5681 84.2387 15.0921 84.375 15.625 84.375H43.75V100H56.25V84.375H84.375C84.9079 84.375 85.432 84.2387 85.8973 83.9791C86.3627 83.7195 86.754 83.3452 87.034 82.8917C87.3139 82.4383 87.4733 81.9208 87.4968 81.3884C87.5204 80.856 87.4075 80.3264 87.1688 79.85L76.9375 59.375H78.1313C78.6891 59.375 79.2368 59.2257 79.7174 58.9426C80.198 58.6594 80.5941 58.2528 80.8645 57.7649C81.1349 57.277 81.2698 56.7256 81.2552 56.168C81.2406 55.6104 81.0769 55.0668 80.7813 54.5938L68.1375 34.375H68.75C69.3153 34.3747 69.8699 34.2211 70.3548 33.9306C70.8396 33.64 71.2366 33.2234 71.5034 32.725C71.7702 32.2267 71.8968 31.6653 71.8698 31.1007C71.8428 30.5361 71.6632 29.9894 71.35 29.5188L52.6 1.39377Z" fill="#0078E8"/>
</svg>
