<svg width="100" height="100" viewBox="0 0 100 100" fill="none" xmlns="http://www.w3.org/2000/svg">
<path fill-rule="evenodd" clip-rule="evenodd" d="M50 6.25C25.875 6.25 6.25 25.875 6.25 50C6.25 74.125 25.875 93.75 50 93.75C53 93.75 55.875 93.4375 58.625 92.875C57.5625 92.375 57.375 88.3125 58.5 86.0625C59.6875 83.5 63.5625 77 59.75 74.8125C55.9375 72.625 57 71.6875 54.6875 69.125C52.375 66.5625 53.3125 66.1875 53.125 65.5C52.625 63.375 55.375 59.9375 55.5625 59.625C55.6875 59.25 55.6875 57.9375 55.5625 57.5625C55.5625 57.0625 53.875 56.1875 53.4375 56.125C53.0625 56.125 52.75 56.8125 52.1875 56.9375C51.625 57.0625 49.0625 55.375 48.5 54.875C47.9375 54.375 47.625 53.4375 46.8125 52.75C46 51.9375 45.9375 52.5625 44.75 52.0625C43.5625 51.5625 39.75 50.125 36.75 49.0625C33.75 47.875 33.5 46.125 33.5 44.9375C33.375 43.6875 31.625 42 30.875 40.75C30 39.5 29.875 37.8125 29.625 38.1875C29.375 38.5625 31.1875 43.0625 30.875 43.25C30.5625 43.375 29.875 42 29 40.875C28.125 39.6875 29.875 40.3125 27.125 34.9375C24.375 29.5625 28 26.8125 28.1875 24C28.375 21.1875 30.5625 25.0625 29.375 23.1875C28.1875 21.3125 29.375 17.625 28.5 16.25C27.6875 14.875 23 17.8125 23 17.8125C23.125 16.4375 27.3125 14.1875 30.25 12.0625C33.1875 9.9375 35.125 11.6875 37.5 12.375C39.9375 13.1875 40.0625 12.9375 39.25 12.0625C38.4375 11.25 39.625 11 41.5 11.25C43.25 11.5625 43.875 13.8125 46.6875 13.5C49.625 13.3125 47 14.0625 47.375 14.875C47.75 15.6875 47 15.5625 45 16.75C43.125 18 45.125 18.125 48.4375 20.5625C51.75 23 50.8125 19 50.375 17.125C49.9375 15.25 52.8125 16.75 52.8125 16.75C54.875 18.125 54.5 16.875 55.9375 17.25C57.375 17.625 61.625 21.25 61.625 21.25C56.4375 24 59.6875 24.25 60.5625 24.9375C61.4375 25.625 58.8125 26.8125 58.8125 26.8125C57.75 25.75 57.625 26.9375 56.9375 27.3125C56.25 27.6875 56.8125 28.6875 56.8125 28.6875C53.3125 29.25 54.0625 33 54.1875 33.875C54.1875 34.75 51.8125 36.125 51.25 37.5C50.6875 38.75 52.8125 41.5 51.625 41.625C50.4375 41.8125 49.5 37.5 43.4375 39.0625C41.5625 39.5625 37.5625 41.625 39.75 45.8125C42 50.125 45.5 44.625 46.6875 45.25C47.875 45.875 46.3125 48.5625 46.5625 48.6875C46.8125 48.8125 49.875 48.8125 50.0625 52.5C50.25 56.1875 54.875 55.8125 55.8125 55.9375C56.875 55.9375 60.1875 53.1875 60.625 53.125C61 52.9375 63 51.375 67.0625 53.6875C71.1875 55.9375 73.1875 55.625 74.5625 56.625C75.9375 57.625 75.0625 59.5625 76.3125 60.25C77.5625 60.9375 82.9375 60.0625 84.3125 62.1875C85.6875 64.3125 78.8125 75.25 76.6875 76.4375C74.5625 77.625 73.6875 80.4375 71.4375 82.1875C69.1875 83.9375 66.375 86.1875 63.5 87.875C60.9375 89.3125 60.5625 92 59.375 92.875C79 88.5 93.625 71 93.625 50.125C93.625 26 74 6.375 49.875 6.375L50 6.25ZM60.25 47.25C59.6875 47.4375 58.5 48.625 55.375 46.75C52.375 44.875 50.3125 45.3125 50 45C50 45 49.6875 44.3125 51.0625 44.125C53.8125 43.8125 57.1875 46.6875 58 46.6875C58.8125 46.6875 59.1875 45.875 60.5625 46.375C61.9375 46.875 60.875 47.1875 60.25 47.25ZM45.875 10.625C45.5625 10.4375 46.0625 10.125 46.4375 9.75C46.625 9.5625 46.5625 9.0625 46.75 8.875C47.4375 8.1875 50.5625 7.3125 50 9.0625C49.3125 10.75 46.375 10.9375 45.875 10.625ZM53.5625 16.1875C52.375 16.0625 49.9375 15.875 50.3125 15.3125C52.1875 13.5625 49.75 12.9375 48.1875 12.9375C46.625 12.8125 46.0625 11.9375 46.8125 11.75C47.5625 11.5625 50.625 11.875 51.1875 12.25C51.6875 12.625 54.4375 13.8125 54.625 14.625C54.75 15.4375 54.625 16.1875 53.5625 16.1875ZM62.75 15.875C61.875 16.4375 57.5625 13.3125 56.8125 12.625C53.3125 9.625 51.25 10.6875 50.5625 10.0625C49.875 9.4375 50.0625 8.875 51.25 7.9375C52.4375 7 55.5625 8.3125 57.5 8.5C59.375 8.6875 61.625 10.1875 61.625 11.9375C61.75 13.5 63.6875 15.0625 62.8125 15.875H62.75Z" fill="#0078E8"/>
</svg>
