<svg width="100" height="100" viewBox="0 0 100 100" fill="none" xmlns="http://www.w3.org/2000/svg">
<path fill-rule="evenodd" clip-rule="evenodd" d="M93.75 54.8125V44.8125L81.625 40.8125L78.8125 34L84.3125 22.5L77.25 15.4375L65.9375 21.125L59.125 18.3125L54.8125 6.3125H44.8125L40.875 18.4375L33.9375 21.25L22.4375 15.75L15.375 22.8125L21.0625 34.125L18.25 40.9375L6.25 45.1875V55.125L18.375 59.125L21.1875 65.9375L15.6875 77.4375L22.75 84.5L34.0625 78.8125L40.875 81.625L45.1875 93.625H55.125L59.0625 81.5L66 78.6875L77.5 84.1875L84.5625 77.125L78.8125 65.8125L81.75 59L93.75 54.6875V54.8125ZM50 68.75C39.625 68.75 31.25 60.375 31.25 50C31.25 39.625 39.625 31.25 50 31.25C60.375 31.25 68.75 39.625 68.75 50C68.75 60.375 60.375 68.75 50 68.75Z" fill="#0078E8"/>
</svg>
