<svg width="34" height="30" viewBox="0 0 34 30" fill="none" xmlns="http://www.w3.org/2000/svg">
<g id="AiOutlineMail">
<path id="Vector" d="M30.8125 4.6875H3.1875C2.5998 4.6875 2.125 5.10645 2.125 5.625V24.375C2.125 24.8936 2.5998 25.3125 3.1875 25.3125H30.8125C31.4002 25.3125 31.875 24.8936 31.875 24.375V5.625C31.875 5.10645 31.4002 4.6875 30.8125 4.6875ZM29.4844 7.93359V23.2031H4.51562V7.93359L3.59922 7.30371L4.9041 5.82422L6.3252 6.7998H27.6781L29.0992 5.82422L30.4041 7.30371L29.4844 7.93359ZM27.6781 6.79688L17 14.1211L6.32187 6.79688L4.90078 5.82129L3.5959 7.30078L4.5123 7.93066L15.8545 15.7119C16.1807 15.9355 16.582 16.0569 16.995 16.0569C17.4081 16.0569 17.8094 15.9355 18.1355 15.7119L29.4844 7.93359L30.4008 7.30371L29.0959 5.82422L27.6781 6.79688Z" fill="#0078E8"/>
</g>
</svg>
