<svg width="50" height="50" viewBox="0 0 50 50" fill="none" xmlns="http://www.w3.org/2000/svg">
<g id="BiCoffeeTogo">
<path id="Vector" d="M14.5833 45.8333H35.4167C35.918 45.8334 36.4025 45.6526 36.7814 45.3243C37.1602 44.996 37.408 44.542 37.4792 44.0458L41.3896 16.6666H43.75V12.5H40.8708L37.2792 5.31871C37.1066 4.9724 36.8409 4.6811 36.5119 4.47757C36.1829 4.27404 35.8036 4.16635 35.4167 4.16663H14.5833C13.7937 4.16663 13.0729 4.61246 12.7188 5.31871L9.12917 12.5H6.25V16.6666H8.61042L12.5208 44.0458C12.592 44.542 12.8398 44.996 13.2186 45.3243C13.5975 45.6526 14.082 45.8334 14.5833 45.8333ZM36.2875 22.9166H13.7125L12.8187 16.6666H37.1792L36.2875 22.9166ZM16.3896 41.6666L15.4958 35.4166H34.5021L33.6083 41.6666H16.3896ZM15.8708 8.33329H34.1292L36.2125 12.5H13.7875L15.8708 8.33329Z" fill="white"/>
</g>
</svg>
