<svg width="50" height="50" viewBox="0 0 50 50" fill="none" xmlns="http://www.w3.org/2000/svg">
<g id="MdMenuBook">
<path id="Vector" d="M43.7502 10.4167C41.4377 9.6875 38.896 9.375 36.4585 9.375C32.396 9.375 28.021 10.2083 25.0002 12.5C21.9793 10.2083 17.6043 9.375 13.5418 9.375C9.47933 9.375 5.10433 10.2083 2.0835 12.5V43.0208C2.0835 43.5417 2.60433 44.0625 3.12516 44.0625C3.3335 44.0625 3.43766 43.9583 3.646 43.9583C6.4585 42.6042 10.521 41.6667 13.5418 41.6667C17.6043 41.6667 21.9793 42.5 25.0002 44.7917C27.8127 43.0208 32.9168 41.6667 36.4585 41.6667C39.896 41.6667 43.4377 42.2917 46.3543 43.8542C46.5627 43.9583 46.6668 43.9583 46.8752 43.9583C47.396 43.9583 47.9168 43.4375 47.9168 42.9167V12.5C46.6668 11.5625 45.3127 10.9375 43.7502 10.4167ZM43.7502 38.5417C41.4585 37.8125 38.9585 37.5 36.4585 37.5C32.9168 37.5 27.8127 38.8542 25.0002 40.625V16.6667C27.8127 14.8958 32.9168 13.5417 36.4585 13.5417C38.9585 13.5417 41.4585 13.8542 43.7502 14.5833V38.5417Z" fill="white"/>
<path id="Vector_2" d="M36.4585 21.875C38.2918 21.875 40.0627 22.0625 41.6668 22.4167V19.25C40.021 18.9375 38.2502 18.75 36.4585 18.75C32.9168 18.75 29.7085 19.3542 27.0835 20.4792V23.9375C29.4377 22.6042 32.7085 21.875 36.4585 21.875ZM27.0835 26.0208V29.4792C29.4377 28.1458 32.7085 27.4167 36.4585 27.4167C38.2918 27.4167 40.0627 27.6042 41.6668 27.9583V24.7917C40.021 24.4792 38.2502 24.2917 36.4585 24.2917C32.9168 24.2917 29.7085 24.9167 27.0835 26.0208ZM36.4585 29.8542C32.9168 29.8542 29.7085 30.4583 27.0835 31.5833V35.0417C29.4377 33.7083 32.7085 32.9792 36.4585 32.9792C38.2918 32.9792 40.0627 33.1667 41.6668 33.5208V30.3542C40.021 30.0208 38.2502 29.8542 36.4585 29.8542Z" fill="white"/>
</g>
</svg>
