<svg width="50" height="50" viewBox="0 0 50 50" fill="none" xmlns="http://www.w3.org/2000/svg">
<g id="MdPeopleOutline">
<path id="Vector" d="M34.3752 27.0833C31.8752 27.0833 27.9793 27.7916 25.0002 29.1666C22.021 27.7708 18.1252 27.0833 15.6252 27.0833C11.1043 27.0833 2.0835 29.3333 2.0835 33.8541V39.5833H47.9168V33.8541C47.9168 29.3333 38.896 27.0833 34.3752 27.0833ZM26.0418 36.4583H5.2085V33.8541C5.2085 32.7291 10.5418 30.2083 15.6252 30.2083C20.7085 30.2083 26.0418 32.7291 26.0418 33.8541V36.4583ZM44.7918 36.4583H29.1668V33.8541C29.1668 32.8958 28.7502 32.0625 28.0835 31.3125C29.9168 30.6875 32.1668 30.2083 34.3752 30.2083C39.4585 30.2083 44.7918 32.7291 44.7918 33.8541V36.4583ZM15.6252 25C19.646 25 22.9168 21.7291 22.9168 17.7083C22.9168 13.6875 19.646 10.4166 15.6252 10.4166C11.6043 10.4166 8.3335 13.6875 8.3335 17.7083C8.3335 21.7291 11.6043 25 15.6252 25ZM15.6252 13.5416C17.9168 13.5416 19.7918 15.4166 19.7918 17.7083C19.7918 20 17.9168 21.875 15.6252 21.875C13.3335 21.875 11.4585 20 11.4585 17.7083C11.4585 15.4166 13.3335 13.5416 15.6252 13.5416ZM34.3752 25C38.396 25 41.6668 21.7291 41.6668 17.7083C41.6668 13.6875 38.396 10.4166 34.3752 10.4166C30.3543 10.4166 27.0835 13.6875 27.0835 17.7083C27.0835 21.7291 30.3543 25 34.3752 25ZM34.3752 13.5416C36.6668 13.5416 38.5418 15.4166 38.5418 17.7083C38.5418 20 36.6668 21.875 34.3752 21.875C32.0835 21.875 30.2085 20 30.2085 17.7083C30.2085 15.4166 32.0835 13.5416 34.3752 13.5416Z" fill="white"/>
</g>
</svg>
